<svg width="795" height="250" viewBox="0 0 795 250" fill="none" xmlns="http://www.w3.org/2000/svg">
<path d="M365.722 29.5904L362.95 24.6944H361.762V29.5904H359.242V17.0264H363.958C364.93 17.0264 365.758 17.2004 366.442 17.5484C367.126 17.8844 367.636 18.3464 367.972 18.9344C368.32 19.5104 368.494 20.1584 368.494 20.8784C368.494 21.7064 368.254 22.4564 367.774 23.1284C367.294 23.7884 366.58 24.2444 365.632 24.4964L368.638 29.5904H365.722ZM361.762 22.8044H363.868C364.552 22.8044 365.062 22.6424 365.398 22.3184C365.734 21.9824 365.902 21.5204 365.902 20.9324C365.902 20.3564 365.734 19.9124 365.398 19.6004C365.062 19.2764 364.552 19.1144 363.868 19.1144H361.762V22.8044ZM373.293 19.0604V22.2104H377.523V24.2084H373.293V27.5384H378.063V29.5904H370.773V17.0084H378.063V19.0604H373.293ZM391.639 17.0264L387.031 29.5904H383.971L379.363 17.0264H382.063L385.519 27.0164L388.957 17.0264H391.639ZM395.67 19.0604V22.2104H399.9V24.2084H395.67V27.5384H400.44V29.5904H393.15V17.0084H400.44V19.0604H395.67ZM413.476 29.5904H410.956L405.25 20.9684V29.5904H402.73V17.0084H405.25L410.956 25.6484V17.0084H413.476V29.5904ZM418.451 17.0264V24.8024C418.451 25.6544 418.673 26.3084 419.117 26.7644C419.561 27.2084 420.185 27.4304 420.989 27.4304C421.805 27.4304 422.435 27.2084 422.879 26.7644C423.323 26.3084 423.545 25.6544 423.545 24.8024V17.0264H426.083V24.7844C426.083 25.8524 425.849 26.7584 425.381 27.5024C424.925 28.2344 424.307 28.7864 423.527 29.1584C422.759 29.5304 421.901 29.7164 420.953 29.7164C420.017 29.7164 419.165 29.5304 418.397 29.1584C417.641 28.7864 417.041 28.2344 416.597 27.5024C416.153 26.7584 415.931 25.8524 415.931 24.7844V17.0264H418.451ZM431.037 19.0604V22.2104H435.267V24.2084H431.037V27.5384H435.807V29.5904H428.517V17.0084H435.807V19.0604H431.037Z" fill="black"/>
<path d="M39.5 199.59C60.4918 161.501 147.378 80.6373 190.621 98.6796C244.675 121.232 250.972 209.439 326.542 190.394C402.113 171.35 347.735 84.1455 404.938 74.6232C462.14 65.1009 441.673 159.823 525.64 136.769C609.608 113.715 585.467 234.498 663.136 170.849C740.806 107.2 678.355 94.6702 755.5 60.5904" stroke="url(#paint0_linear_294_132)" stroke-width="3"/>
<rect width="762" height="17" transform="translate(16.5 223.59)" fill="white"/>
<path d="M37.8162 226.86V233.874C37.8162 234.742 37.5502 235.428 37.0182 235.932C36.4955 236.436 35.8049 236.688 34.9462 236.688C34.0875 236.688 33.3922 236.436 32.8602 235.932C32.3375 235.428 32.0762 234.742 32.0762 233.874H33.6862C33.6955 234.304 33.8029 234.644 34.0082 234.896C34.2229 235.148 34.5355 235.274 34.9462 235.274C35.3569 235.274 35.6695 235.148 35.8842 234.896C36.0989 234.635 36.2062 234.294 36.2062 233.874V226.86H37.8162ZM39.8805 232.698C39.8805 231.924 40.0392 231.238 40.3565 230.64C40.6832 230.043 41.1219 229.581 41.6725 229.254C42.2325 228.918 42.8485 228.75 43.5205 228.75C44.1272 228.75 44.6545 228.872 45.1025 229.114C45.5599 229.348 45.9239 229.642 46.1945 229.996V228.876H47.8045V236.59H46.1945V235.442C45.9239 235.806 45.5552 236.11 45.0885 236.352C44.6219 236.595 44.0899 236.716 43.4925 236.716C42.8299 236.716 42.2232 236.548 41.6725 236.212C41.1219 235.867 40.6832 235.391 40.3565 234.784C40.0392 234.168 39.8805 233.473 39.8805 232.698ZM46.1945 232.726C46.1945 232.194 46.0825 231.732 45.8585 231.34C45.6439 230.948 45.3592 230.65 45.0045 230.444C44.6499 230.239 44.2672 230.136 43.8565 230.136C43.4459 230.136 43.0632 230.239 42.7085 230.444C42.3539 230.64 42.0645 230.934 41.8405 231.326C41.6259 231.709 41.5185 232.166 41.5185 232.698C41.5185 233.23 41.6259 233.697 41.8405 234.098C42.0645 234.5 42.3539 234.808 42.7085 235.022C43.0725 235.228 43.4552 235.33 43.8565 235.33C44.2672 235.33 44.6499 235.228 45.0045 235.022C45.3592 234.817 45.6439 234.518 45.8585 234.126C46.0825 233.725 46.1945 233.258 46.1945 232.726ZM53.7928 228.75C54.3995 228.75 54.9408 228.876 55.4168 229.128C55.9021 229.38 56.2801 229.754 56.5508 230.248C56.8215 230.743 56.9568 231.34 56.9568 232.04V236.59H55.3748V232.278C55.3748 231.588 55.2021 231.06 54.8568 230.696C54.5115 230.323 54.0401 230.136 53.4428 230.136C52.8455 230.136 52.3695 230.323 52.0148 230.696C51.6695 231.06 51.4968 231.588 51.4968 232.278V236.59H49.9008V228.876H51.4968V229.758C51.7581 229.441 52.0895 229.194 52.4908 229.016C52.9015 228.839 53.3355 228.75 53.7928 228.75Z" fill="black"/>
<path d="M102.825 226.86V228.162H98.6952V231.032H101.915V232.334H98.6952V236.59H97.0992V226.86H102.825ZM111.374 232.544C111.374 232.834 111.356 233.095 111.318 233.328H105.424C105.471 233.944 105.7 234.439 106.11 234.812C106.521 235.186 107.025 235.372 107.622 235.372C108.481 235.372 109.088 235.013 109.442 234.294H111.164C110.931 235.004 110.506 235.587 109.89 236.044C109.284 236.492 108.528 236.716 107.622 236.716C106.885 236.716 106.222 236.553 105.634 236.226C105.056 235.89 104.598 235.424 104.262 234.826C103.936 234.22 103.772 233.52 103.772 232.726C103.772 231.933 103.931 231.238 104.248 230.64C104.575 230.034 105.028 229.567 105.606 229.24C106.194 228.914 106.866 228.75 107.622 228.75C108.35 228.75 108.999 228.909 109.568 229.226C110.138 229.544 110.581 229.992 110.898 230.57C111.216 231.14 111.374 231.798 111.374 232.544ZM109.708 232.04C109.699 231.452 109.489 230.981 109.078 230.626C108.668 230.272 108.159 230.094 107.552 230.094C107.002 230.094 106.53 230.272 106.138 230.626C105.746 230.972 105.513 231.443 105.438 232.04H109.708ZM114.541 230.024C114.812 229.651 115.18 229.348 115.647 229.114C116.123 228.872 116.65 228.75 117.229 228.75C117.91 228.75 118.526 228.914 119.077 229.24C119.628 229.567 120.062 230.034 120.379 230.64C120.696 231.238 120.855 231.924 120.855 232.698C120.855 233.473 120.696 234.168 120.379 234.784C120.062 235.391 119.623 235.867 119.063 236.212C118.512 236.548 117.901 236.716 117.229 236.716C116.632 236.716 116.1 236.6 115.633 236.366C115.176 236.133 114.812 235.834 114.541 235.47V236.59H112.945V226.23H114.541V230.024ZM119.231 232.698C119.231 232.166 119.119 231.709 118.895 231.326C118.68 230.934 118.391 230.64 118.027 230.444C117.672 230.239 117.29 230.136 116.879 230.136C116.478 230.136 116.095 230.239 115.731 230.444C115.376 230.65 115.087 230.948 114.863 231.34C114.648 231.732 114.541 232.194 114.541 232.726C114.541 233.258 114.648 233.725 114.863 234.126C115.087 234.518 115.376 234.817 115.731 235.022C116.095 235.228 116.478 235.33 116.879 235.33C117.29 235.33 117.672 235.228 118.027 235.022C118.391 234.808 118.68 234.5 118.895 234.098C119.119 233.697 119.231 233.23 119.231 232.698Z" fill="black"/>
<path d="M170.426 226.86V236.59H168.83V229.926L165.862 236.59H164.756L161.774 229.926V236.59H160.178V226.86H161.9L165.316 234.49L168.718 226.86H170.426ZM171.991 232.698C171.991 231.924 172.15 231.238 172.467 230.64C172.794 230.043 173.233 229.581 173.783 229.254C174.343 228.918 174.959 228.75 175.631 228.75C176.238 228.75 176.765 228.872 177.213 229.114C177.671 229.348 178.035 229.642 178.305 229.996V228.876H179.915V236.59H178.305V235.442C178.035 235.806 177.666 236.11 177.199 236.352C176.733 236.595 176.201 236.716 175.603 236.716C174.941 236.716 174.334 236.548 173.783 236.212C173.233 235.867 172.794 235.391 172.467 234.784C172.15 234.168 171.991 233.473 171.991 232.698ZM178.305 232.726C178.305 232.194 178.193 231.732 177.969 231.34C177.755 230.948 177.47 230.65 177.115 230.444C176.761 230.239 176.378 230.136 175.967 230.136C175.557 230.136 175.174 230.239 174.819 230.444C174.465 230.64 174.175 230.934 173.951 231.326C173.737 231.709 173.629 232.166 173.629 232.698C173.629 233.23 173.737 233.697 173.951 234.098C174.175 234.5 174.465 234.808 174.819 235.022C175.183 235.228 175.566 235.33 175.967 235.33C176.378 235.33 176.761 235.228 177.115 235.022C177.47 234.817 177.755 234.518 177.969 234.126C178.193 233.725 178.305 233.258 178.305 232.726ZM183.608 229.996C183.841 229.604 184.149 229.301 184.532 229.086C184.924 228.862 185.386 228.75 185.918 228.75V230.402H185.512C184.886 230.402 184.41 230.561 184.084 230.878C183.766 231.196 183.608 231.746 183.608 232.53V236.59H182.012V228.876H183.608V229.996Z" fill="black"/>
<path d="M231.828 234.602H227.754L227.054 236.59H225.388L228.874 226.846H230.722L234.208 236.59H232.528L231.828 234.602ZM231.38 233.3L229.798 228.778L228.202 233.3H231.38ZM237.32 230.01C237.591 229.656 237.959 229.357 238.426 229.114C238.893 228.872 239.42 228.75 240.008 228.75C240.68 228.75 241.291 228.918 241.842 229.254C242.402 229.581 242.841 230.043 243.158 230.64C243.475 231.238 243.634 231.924 243.634 232.698C243.634 233.473 243.475 234.168 243.158 234.784C242.841 235.391 242.402 235.867 241.842 236.212C241.291 236.548 240.68 236.716 240.008 236.716C239.42 236.716 238.897 236.6 238.44 236.366C237.983 236.124 237.609 235.825 237.32 235.47V240.258H235.724V228.876H237.32V230.01ZM242.01 232.698C242.01 232.166 241.898 231.709 241.674 231.326C241.459 230.934 241.17 230.64 240.806 230.444C240.451 230.239 240.069 230.136 239.658 230.136C239.257 230.136 238.874 230.239 238.51 230.444C238.155 230.65 237.866 230.948 237.642 231.34C237.427 231.732 237.32 232.194 237.32 232.726C237.32 233.258 237.427 233.725 237.642 234.126C237.866 234.518 238.155 234.817 238.51 235.022C238.874 235.228 239.257 235.33 239.658 235.33C240.069 235.33 240.451 235.228 240.806 235.022C241.17 234.808 241.459 234.5 241.674 234.098C241.898 233.697 242.01 233.23 242.01 232.698ZM246.808 229.996C247.042 229.604 247.35 229.301 247.732 229.086C248.124 228.862 248.586 228.75 249.118 228.75V230.402H248.712C248.087 230.402 247.611 230.561 247.284 230.878C246.967 231.196 246.808 231.746 246.808 232.53V236.59H245.212V228.876H246.808V229.996Z" fill="black"/>
<path d="M297.546 226.86V236.59H295.95V229.926L292.982 236.59H291.876L288.894 229.926V236.59H287.298V226.86H289.02L292.436 234.49L295.838 226.86H297.546ZM299.111 232.698C299.111 231.924 299.27 231.238 299.587 230.64C299.914 230.043 300.353 229.581 300.903 229.254C301.463 228.918 302.079 228.75 302.751 228.75C303.358 228.75 303.885 228.872 304.333 229.114C304.791 229.348 305.155 229.642 305.425 229.996V228.876H307.035V236.59H305.425V235.442C305.155 235.806 304.786 236.11 304.319 236.352C303.853 236.595 303.321 236.716 302.723 236.716C302.061 236.716 301.454 236.548 300.903 236.212C300.353 235.867 299.914 235.391 299.587 234.784C299.27 234.168 299.111 233.473 299.111 232.698ZM305.425 232.726C305.425 232.194 305.313 231.732 305.089 231.34C304.875 230.948 304.59 230.65 304.235 230.444C303.881 230.239 303.498 230.136 303.087 230.136C302.677 230.136 302.294 230.239 301.939 230.444C301.585 230.64 301.295 230.934 301.071 231.326C300.857 231.709 300.749 232.166 300.749 232.698C300.749 233.23 300.857 233.697 301.071 234.098C301.295 234.5 301.585 234.808 301.939 235.022C302.303 235.228 302.686 235.33 303.087 235.33C303.498 235.33 303.881 235.228 304.235 235.022C304.59 234.817 304.875 234.518 305.089 234.126C305.313 233.725 305.425 233.258 305.425 232.726ZM316.076 228.876L311.344 240.216H309.692L311.26 236.464L308.222 228.876H310L312.17 234.756L314.424 228.876H316.076Z" fill="black"/>
<path d="M358.567 226.86V233.874C358.567 234.742 358.301 235.428 357.769 235.932C357.246 236.436 356.555 236.688 355.697 236.688C354.838 236.688 354.143 236.436 353.611 235.932C353.088 235.428 352.827 234.742 352.827 233.874H354.437C354.446 234.304 354.553 234.644 354.759 234.896C354.973 235.148 355.286 235.274 355.697 235.274C356.107 235.274 356.42 235.148 356.635 234.896C356.849 234.635 356.957 234.294 356.957 233.874V226.86H358.567ZM368.149 228.876V236.59H366.553V235.68C366.301 235.998 365.97 236.25 365.559 236.436C365.158 236.614 364.728 236.702 364.271 236.702C363.664 236.702 363.118 236.576 362.633 236.324C362.157 236.072 361.779 235.699 361.499 235.204C361.228 234.71 361.093 234.112 361.093 233.412V228.876H362.675V233.174C362.675 233.865 362.848 234.397 363.193 234.77C363.538 235.134 364.01 235.316 364.607 235.316C365.204 235.316 365.676 235.134 366.021 234.77C366.376 234.397 366.553 233.865 366.553 233.174V228.876H368.149ZM374.147 228.75C374.753 228.75 375.295 228.876 375.771 229.128C376.256 229.38 376.634 229.754 376.905 230.248C377.175 230.743 377.311 231.34 377.311 232.04V236.59H375.729V232.278C375.729 231.588 375.556 231.06 375.211 230.696C374.865 230.323 374.394 230.136 373.797 230.136C373.199 230.136 372.723 230.323 372.369 230.696C372.023 231.06 371.851 231.588 371.851 232.278V236.59H370.255V228.876H371.851V229.758C372.112 229.441 372.443 229.194 372.845 229.016C373.255 228.839 373.689 228.75 374.147 228.75Z" fill="black"/>
<path d="M425.76 226.86V233.874C425.76 234.742 425.494 235.428 424.962 235.932C424.439 236.436 423.748 236.688 422.89 236.688C422.031 236.688 421.336 236.436 420.804 235.932C420.281 235.428 420.02 234.742 420.02 233.874H421.63C421.639 234.304 421.746 234.644 421.952 234.896C422.166 235.148 422.479 235.274 422.89 235.274C423.3 235.274 423.613 235.148 423.828 234.896C424.042 234.635 424.15 234.294 424.15 233.874V226.86H425.76ZM435.342 228.876V236.59H433.746V235.68C433.494 235.998 433.163 236.25 432.752 236.436C432.351 236.614 431.921 236.702 431.464 236.702C430.857 236.702 430.311 236.576 429.826 236.324C429.35 236.072 428.972 235.699 428.692 235.204C428.421 234.71 428.286 234.112 428.286 233.412V228.876H429.868V233.174C429.868 233.865 430.041 234.397 430.386 234.77C430.731 235.134 431.203 235.316 431.8 235.316C432.397 235.316 432.869 235.134 433.214 234.77C433.569 234.397 433.746 233.865 433.746 233.174V228.876H435.342ZM439.044 226.23V236.59H437.448V226.23H439.044Z" fill="black"/>
<path d="M486.506 234.602H482.432L481.732 236.59H480.066L483.552 226.846H485.4L488.886 236.59H487.206L486.506 234.602ZM486.058 233.3L484.476 228.778L482.88 233.3H486.058ZM497.388 228.876V236.59H495.792V235.68C495.54 235.998 495.209 236.25 494.798 236.436C494.397 236.614 493.967 236.702 493.51 236.702C492.903 236.702 492.357 236.576 491.872 236.324C491.396 236.072 491.018 235.699 490.738 235.204C490.467 234.71 490.332 234.112 490.332 233.412V228.876H491.914V233.174C491.914 233.865 492.087 234.397 492.432 234.77C492.777 235.134 493.249 235.316 493.846 235.316C494.443 235.316 494.915 235.134 495.26 234.77C495.615 234.397 495.792 233.865 495.792 233.174V228.876H497.388ZM502.602 228.75C503.199 228.75 503.727 228.872 504.184 229.114C504.651 229.348 505.015 229.642 505.276 229.996V228.876H506.886V236.716C506.886 237.426 506.737 238.056 506.438 238.606C506.139 239.166 505.705 239.605 505.136 239.922C504.576 240.24 503.904 240.398 503.12 240.398C502.075 240.398 501.207 240.151 500.516 239.656C499.825 239.171 499.433 238.508 499.34 237.668H500.922C501.043 238.07 501.3 238.392 501.692 238.634C502.093 238.886 502.569 239.012 503.12 239.012C503.764 239.012 504.282 238.816 504.674 238.424C505.075 238.032 505.276 237.463 505.276 236.716V235.428C505.005 235.792 504.637 236.1 504.17 236.352C503.713 236.595 503.19 236.716 502.602 236.716C501.93 236.716 501.314 236.548 500.754 236.212C500.203 235.867 499.765 235.391 499.438 234.784C499.121 234.168 498.962 233.473 498.962 232.698C498.962 231.924 499.121 231.238 499.438 230.64C499.765 230.043 500.203 229.581 500.754 229.254C501.314 228.918 501.93 228.75 502.602 228.75ZM505.276 232.726C505.276 232.194 505.164 231.732 504.94 231.34C504.725 230.948 504.441 230.65 504.086 230.444C503.731 230.239 503.349 230.136 502.938 230.136C502.527 230.136 502.145 230.239 501.79 230.444C501.435 230.64 501.146 230.934 500.922 231.326C500.707 231.709 500.6 232.166 500.6 232.698C500.6 233.23 500.707 233.697 500.922 234.098C501.146 234.5 501.435 234.808 501.79 235.022C502.154 235.228 502.537 235.33 502.938 235.33C503.349 235.33 503.731 235.228 504.086 235.022C504.441 234.817 504.725 234.518 504.94 234.126C505.164 233.725 505.276 233.258 505.276 232.726Z" fill="black"/>
<path d="M548.743 236.688C548.09 236.688 547.502 236.576 546.979 236.352C546.456 236.119 546.046 235.792 545.747 235.372C545.448 234.952 545.299 234.462 545.299 233.902H547.007C547.044 234.322 547.208 234.668 547.497 234.938C547.796 235.209 548.211 235.344 548.743 235.344C549.294 235.344 549.723 235.214 550.031 234.952C550.339 234.682 550.493 234.336 550.493 233.916C550.493 233.59 550.395 233.324 550.199 233.118C550.012 232.913 549.774 232.754 549.485 232.642C549.205 232.53 548.813 232.409 548.309 232.278C547.674 232.11 547.156 231.942 546.755 231.774C546.363 231.597 546.027 231.326 545.747 230.962C545.467 230.598 545.327 230.113 545.327 229.506C545.327 228.946 545.467 228.456 545.747 228.036C546.027 227.616 546.419 227.294 546.923 227.07C547.427 226.846 548.01 226.734 548.673 226.734C549.616 226.734 550.386 226.972 550.983 227.448C551.59 227.915 551.926 228.559 551.991 229.38H550.227C550.199 229.026 550.031 228.722 549.723 228.47C549.415 228.218 549.009 228.092 548.505 228.092C548.048 228.092 547.674 228.209 547.385 228.442C547.096 228.676 546.951 229.012 546.951 229.45C546.951 229.749 547.04 229.996 547.217 230.192C547.404 230.379 547.637 230.528 547.917 230.64C548.197 230.752 548.58 230.874 549.065 231.004C549.709 231.182 550.232 231.359 550.633 231.536C551.044 231.714 551.389 231.989 551.669 232.362C551.958 232.726 552.103 233.216 552.103 233.832C552.103 234.327 551.968 234.794 551.697 235.232C551.436 235.671 551.048 236.026 550.535 236.296C550.031 236.558 549.434 236.688 548.743 236.688ZM561.056 232.544C561.056 232.834 561.038 233.095 561 233.328H555.106C555.153 233.944 555.382 234.439 555.792 234.812C556.203 235.186 556.707 235.372 557.304 235.372C558.163 235.372 558.77 235.013 559.124 234.294H560.846C560.613 235.004 560.188 235.587 559.572 236.044C558.966 236.492 558.21 236.716 557.304 236.716C556.567 236.716 555.904 236.553 555.316 236.226C554.738 235.89 554.28 235.424 553.944 234.826C553.618 234.22 553.454 233.52 553.454 232.726C553.454 231.933 553.613 231.238 553.93 230.64C554.257 230.034 554.71 229.567 555.288 229.24C555.876 228.914 556.548 228.75 557.304 228.75C558.032 228.75 558.681 228.909 559.25 229.226C559.82 229.544 560.263 229.992 560.58 230.57C560.898 231.14 561.056 231.798 561.056 232.544ZM559.39 232.04C559.381 231.452 559.171 230.981 558.76 230.626C558.35 230.272 557.841 230.094 557.234 230.094C556.684 230.094 556.212 230.272 555.82 230.626C555.428 230.972 555.195 231.443 555.12 232.04H559.39ZM564.223 230.01C564.494 229.656 564.862 229.357 565.329 229.114C565.796 228.872 566.323 228.75 566.911 228.75C567.583 228.75 568.194 228.918 568.745 229.254C569.305 229.581 569.744 230.043 570.061 230.64C570.378 231.238 570.537 231.924 570.537 232.698C570.537 233.473 570.378 234.168 570.061 234.784C569.744 235.391 569.305 235.867 568.745 236.212C568.194 236.548 567.583 236.716 566.911 236.716C566.323 236.716 565.8 236.6 565.343 236.366C564.886 236.124 564.512 235.825 564.223 235.47V240.258H562.627V228.876H564.223V230.01ZM568.913 232.698C568.913 232.166 568.801 231.709 568.577 231.326C568.362 230.934 568.073 230.64 567.709 230.444C567.354 230.239 566.972 230.136 566.561 230.136C566.16 230.136 565.777 230.239 565.413 230.444C565.058 230.65 564.769 230.948 564.545 231.34C564.33 231.732 564.223 232.194 564.223 232.726C564.223 233.258 564.33 233.725 564.545 234.126C564.769 234.518 565.058 234.817 565.413 235.022C565.777 235.228 566.16 235.33 566.561 235.33C566.972 235.33 567.354 235.228 567.709 235.022C568.073 234.808 568.362 234.5 568.577 234.098C568.801 233.697 568.913 233.23 568.913 232.698Z" fill="black"/>
<path d="M615.466 236.688C614.561 236.688 613.725 236.478 612.96 236.058C612.204 235.629 611.602 235.036 611.154 234.28C610.715 233.515 610.496 232.656 610.496 231.704C610.496 230.752 610.715 229.898 611.154 229.142C611.602 228.386 612.204 227.798 612.96 227.378C613.725 226.949 614.561 226.734 615.466 226.734C616.381 226.734 617.216 226.949 617.972 227.378C618.737 227.798 619.339 228.386 619.778 229.142C620.217 229.898 620.436 230.752 620.436 231.704C620.436 232.656 620.217 233.515 619.778 234.28C619.339 235.036 618.737 235.629 617.972 236.058C617.216 236.478 616.381 236.688 615.466 236.688ZM615.466 235.302C616.11 235.302 616.684 235.158 617.188 234.868C617.692 234.57 618.084 234.15 618.364 233.608C618.653 233.058 618.798 232.423 618.798 231.704C618.798 230.986 618.653 230.356 618.364 229.814C618.084 229.273 617.692 228.858 617.188 228.568C616.684 228.279 616.11 228.134 615.466 228.134C614.822 228.134 614.248 228.279 613.744 228.568C613.24 228.858 612.843 229.273 612.554 229.814C612.274 230.356 612.134 230.986 612.134 231.704C612.134 232.423 612.274 233.058 612.554 233.608C612.843 234.15 613.24 234.57 613.744 234.868C614.248 235.158 614.822 235.302 615.466 235.302ZM621.474 232.726C621.474 231.933 621.633 231.238 621.95 230.64C622.277 230.034 622.725 229.567 623.294 229.24C623.864 228.914 624.517 228.75 625.254 228.75C626.188 228.75 626.958 228.974 627.564 229.422C628.18 229.861 628.596 230.491 628.81 231.312H627.088C626.948 230.93 626.724 230.631 626.416 230.416C626.108 230.202 625.721 230.094 625.254 230.094C624.601 230.094 624.078 230.328 623.686 230.794C623.304 231.252 623.112 231.896 623.112 232.726C623.112 233.557 623.304 234.206 623.686 234.672C624.078 235.139 624.601 235.372 625.254 235.372C626.178 235.372 626.79 234.966 627.088 234.154H628.81C628.586 234.938 628.166 235.564 627.55 236.03C626.934 236.488 626.169 236.716 625.254 236.716C624.517 236.716 623.864 236.553 623.294 236.226C622.725 235.89 622.277 235.424 621.95 234.826C621.633 234.22 621.474 233.52 621.474 232.726ZM632.263 230.178V234.448C632.263 234.738 632.328 234.948 632.459 235.078C632.599 235.2 632.832 235.26 633.159 235.26H634.139V236.59H632.879C632.16 236.59 631.61 236.422 631.227 236.086C630.844 235.75 630.653 235.204 630.653 234.448V230.178H629.743V228.876H630.653V226.958H632.263V228.876H634.139V230.178H632.263Z" fill="black"/>
<path d="M681.786 236.59H680.19L675.388 229.324V236.59H673.792V226.846H675.388L680.19 234.098V226.846H681.786V236.59ZM687.228 236.716C686.5 236.716 685.842 236.553 685.254 236.226C684.666 235.89 684.204 235.424 683.868 234.826C683.532 234.22 683.364 233.52 683.364 232.726C683.364 231.942 683.536 231.247 683.882 230.64C684.227 230.034 684.698 229.567 685.296 229.24C685.893 228.914 686.56 228.75 687.298 228.75C688.035 228.75 688.702 228.914 689.3 229.24C689.897 229.567 690.368 230.034 690.714 230.64C691.059 231.247 691.232 231.942 691.232 232.726C691.232 233.51 691.054 234.206 690.7 234.812C690.345 235.419 689.86 235.89 689.244 236.226C688.637 236.553 687.965 236.716 687.228 236.716ZM687.228 235.33C687.638 235.33 688.021 235.232 688.376 235.036C688.74 234.84 689.034 234.546 689.258 234.154C689.482 233.762 689.594 233.286 689.594 232.726C689.594 232.166 689.486 231.695 689.272 231.312C689.057 230.92 688.772 230.626 688.418 230.43C688.063 230.234 687.68 230.136 687.27 230.136C686.859 230.136 686.476 230.234 686.122 230.43C685.776 230.626 685.501 230.92 685.296 231.312C685.09 231.695 684.988 232.166 684.988 232.726C684.988 233.557 685.198 234.201 685.618 234.658C686.047 235.106 686.584 235.33 687.228 235.33ZM695.791 235.162L697.975 228.876H699.669L696.729 236.59H694.825L691.899 228.876H693.607L695.791 235.162Z" fill="black"/>
<path d="M741.046 226.86C742.082 226.86 742.987 227.061 743.762 227.462C744.546 227.854 745.148 228.424 745.568 229.17C745.997 229.908 746.212 230.771 746.212 231.76C746.212 232.75 745.997 233.608 745.568 234.336C745.148 235.064 744.546 235.624 743.762 236.016C742.987 236.399 742.082 236.59 741.046 236.59H737.868V226.86H741.046ZM741.046 235.288C742.185 235.288 743.057 234.98 743.664 234.364C744.271 233.748 744.574 232.88 744.574 231.76C744.574 230.631 744.271 229.749 743.664 229.114C743.057 228.48 742.185 228.162 741.046 228.162H739.464V235.288H741.046ZM754.864 232.544C754.864 232.834 754.845 233.095 754.808 233.328H748.914C748.961 233.944 749.189 234.439 749.6 234.812C750.011 235.186 750.515 235.372 751.112 235.372C751.971 235.372 752.577 235.013 752.932 234.294H754.654C754.421 235.004 753.996 235.587 753.38 236.044C752.773 236.492 752.017 236.716 751.112 236.716C750.375 236.716 749.712 236.553 749.124 236.226C748.545 235.89 748.088 235.424 747.752 234.826C747.425 234.22 747.262 233.52 747.262 232.726C747.262 231.933 747.421 231.238 747.738 230.64C748.065 230.034 748.517 229.567 749.096 229.24C749.684 228.914 750.356 228.75 751.112 228.75C751.84 228.75 752.489 228.909 753.058 229.226C753.627 229.544 754.071 229.992 754.388 230.57C754.705 231.14 754.864 231.798 754.864 232.544ZM753.198 232.04C753.189 231.452 752.979 230.981 752.568 230.626C752.157 230.272 751.649 230.094 751.042 230.094C750.491 230.094 750.02 230.272 749.628 230.626C749.236 230.972 749.003 231.443 748.928 232.04H753.198ZM755.903 232.726C755.903 231.933 756.061 231.238 756.379 230.64C756.705 230.034 757.153 229.567 757.723 229.24C758.292 228.914 758.945 228.75 759.683 228.75C760.616 228.75 761.386 228.974 761.993 229.422C762.609 229.861 763.024 230.491 763.239 231.312H761.517C761.377 230.93 761.153 230.631 760.845 230.416C760.537 230.202 760.149 230.094 759.683 230.094C759.029 230.094 758.507 230.328 758.115 230.794C757.732 231.252 757.541 231.896 757.541 232.726C757.541 233.557 757.732 234.206 758.115 234.672C758.507 235.139 759.029 235.372 759.683 235.372C760.607 235.372 761.218 234.966 761.517 234.154H763.239C763.015 234.938 762.595 235.564 761.979 236.03C761.363 236.488 760.597 236.716 759.683 236.716C758.945 236.716 758.292 236.553 757.723 236.226C757.153 235.89 756.705 235.424 756.379 234.826C756.061 234.22 755.903 233.52 755.903 232.726Z" fill="black"/>
<defs>
<linearGradient id="paint0_linear_294_132" x1="51.7519" y1="193.401" x2="754.842" y2="120.474" gradientUnits="userSpaceOnUse">
<stop stop-color="#FE4747"/>
<stop offset="1" stop-color="#946363"/>
</linearGradient>
</defs>
</svg>
