<svg width="207" height="207" viewBox="0 0 207 207" fill="none" xmlns="http://www.w3.org/2000/svg">
<path d="M131.068 28.3949C146.789 34.1809 160.317 44.7172 169.766 58.5354C179.216 72.3537 184.116 88.7654 183.785 105.483L103.32 103.787L131.068 28.3949Z" fill="#F1FC70"/>
<path d="M183.656 103.787C183.656 120.922 178.2 137.61 168.081 151.422C157.962 165.235 143.708 175.452 127.394 180.587C111.08 185.722 93.556 185.506 77.3725 179.972C61.1889 174.438 47.19 163.873 37.4124 149.815C27.6349 135.758 22.5888 118.941 23.0086 101.811C23.4283 84.6808 29.2919 68.1321 39.7462 54.5722C50.2004 41.0124 64.7 31.1489 81.1351 26.417C97.5702 21.6851 115.083 22.3316 131.126 28.2624L103.32 103.787H183.656Z" fill="#70CAFC"/>
<path d="M183.656 103.787C183.656 121.7 177.694 139.101 166.713 153.236C155.732 167.371 140.359 177.432 123.029 181.826C105.699 186.221 87.4014 184.698 71.0323 177.499C54.6633 170.299 41.1582 157.835 32.6549 142.078L103.32 103.787H183.656Z" fill="#7CFC70"/>
<path d="M183.656 103.787C183.656 114.358 181.578 124.826 177.541 134.593C173.504 144.359 167.586 153.234 160.126 160.709L103.32 103.787H183.656Z" fill="#FF3434"/>
</svg>
