<svg width="347" height="226" viewBox="0 0 347 226" fill="none" xmlns="http://www.w3.org/2000/svg">
<path d="M21.2215 197.44V198.184H19.7415V203H18.8295V198.184H17.3415V197.44H21.2215ZM24.4251 198.52C24.7611 198.52 25.0598 198.592 25.3211 198.736C25.5878 198.88 25.7958 199.093 25.9451 199.376C26.0998 199.659 26.1771 200 26.1771 200.4V203H25.2731V200.536C25.2731 200.141 25.1745 199.84 24.9771 199.632C24.7798 199.419 24.5105 199.312 24.1691 199.312C23.8278 199.312 23.5558 199.419 23.3531 199.632C23.1558 199.84 23.0571 200.141 23.0571 200.536V203H22.1451V197.08H23.0571V199.104C23.2118 198.917 23.4065 198.773 23.6411 198.672C23.8811 198.571 24.1425 198.52 24.4251 198.52ZM31.3804 200.688C31.3804 200.853 31.3698 201.003 31.3484 201.136H27.9804C28.0071 201.488 28.1378 201.771 28.3724 201.984C28.6071 202.197 28.8951 202.304 29.2364 202.304C29.7271 202.304 30.0738 202.099 30.2764 201.688H31.2604C31.1271 202.093 30.8844 202.427 30.5324 202.688C30.1858 202.944 29.7538 203.072 29.2364 203.072C28.8151 203.072 28.4364 202.979 28.1004 202.792C27.7698 202.6 27.5084 202.333 27.3164 201.992C27.1298 201.645 27.0364 201.245 27.0364 200.792C27.0364 200.339 27.1271 199.941 27.3084 199.6C27.4951 199.253 27.7538 198.987 28.0844 198.8C28.4204 198.613 28.8044 198.52 29.2364 198.52C29.6524 198.52 30.0231 198.611 30.3484 198.792C30.6738 198.973 30.9271 199.229 31.1084 199.56C31.2898 199.885 31.3804 200.261 31.3804 200.688ZM30.4284 200.4C30.4231 200.064 30.3031 199.795 30.0684 199.592C29.8338 199.389 29.5431 199.288 29.1964 199.288C28.8818 199.288 28.6124 199.389 28.3884 199.592C28.1644 199.789 28.0311 200.059 27.9884 200.4H30.4284ZM34.0521 200.208C34.0521 199.664 34.1774 199.176 34.4281 198.744C34.6841 198.312 35.0281 197.976 35.4601 197.736C35.8974 197.491 36.3747 197.368 36.8921 197.368C37.4841 197.368 38.0094 197.515 38.4681 197.808C38.9321 198.096 39.2681 198.507 39.4761 199.04H38.3801C38.2361 198.747 38.0361 198.528 37.7801 198.384C37.5241 198.24 37.2281 198.168 36.8921 198.168C36.5241 198.168 36.1961 198.251 35.9081 198.416C35.6201 198.581 35.3934 198.819 35.2281 199.128C35.0681 199.437 34.9881 199.797 34.9881 200.208C34.9881 200.619 35.0681 200.979 35.2281 201.288C35.3934 201.597 35.6201 201.837 35.9081 202.008C36.1961 202.173 36.5241 202.256 36.8921 202.256C37.2281 202.256 37.5241 202.184 37.7801 202.04C38.0361 201.896 38.2361 201.677 38.3801 201.384H39.4761C39.2681 201.917 38.9321 202.328 38.4681 202.616C38.0094 202.904 37.4841 203.048 36.8921 203.048C36.3694 203.048 35.8921 202.928 35.4601 202.688C35.0281 202.443 34.6841 202.104 34.4281 201.672C34.1774 201.24 34.0521 200.752 34.0521 200.208ZM41.4556 197.08V203H40.5436V197.08H41.4556ZM42.3489 200.776C42.3489 200.333 42.4396 199.941 42.6209 199.6C42.8076 199.259 43.0583 198.995 43.3729 198.808C43.6929 198.616 44.0449 198.52 44.4289 198.52C44.7756 198.52 45.0769 198.589 45.3329 198.728C45.5943 198.861 45.8023 199.029 45.9569 199.232V198.592H46.8769V203H45.9569V202.344C45.8023 202.552 45.5916 202.725 45.3249 202.864C45.0583 203.003 44.7543 203.072 44.4129 203.072C44.0343 203.072 43.6876 202.976 43.3729 202.784C43.0583 202.587 42.8076 202.315 42.6209 201.968C42.4396 201.616 42.3489 201.219 42.3489 200.776ZM45.9569 200.792C45.9569 200.488 45.8929 200.224 45.7649 200C45.6423 199.776 45.4796 199.605 45.2769 199.488C45.0743 199.371 44.8556 199.312 44.6209 199.312C44.3863 199.312 44.1676 199.371 43.9649 199.488C43.7623 199.6 43.5969 199.768 43.4689 199.992C43.3463 200.211 43.2849 200.472 43.2849 200.776C43.2849 201.08 43.3463 201.347 43.4689 201.576C43.5969 201.805 43.7623 201.981 43.9649 202.104C44.1729 202.221 44.3916 202.28 44.6209 202.28C44.8556 202.28 45.0743 202.221 45.2769 202.104C45.4796 201.987 45.6423 201.816 45.7649 201.592C45.8929 201.363 45.9569 201.096 45.9569 200.792ZM49.6748 203.072C49.3282 203.072 49.0162 203.011 48.7388 202.888C48.4668 202.76 48.2508 202.589 48.0908 202.376C47.9308 202.157 47.8455 201.915 47.8348 201.648H48.7788C48.7948 201.835 48.8828 201.992 49.0428 202.12C49.2082 202.243 49.4135 202.304 49.6588 202.304C49.9148 202.304 50.1122 202.256 50.2508 202.16C50.3948 202.059 50.4668 201.931 50.4668 201.776C50.4668 201.611 50.3868 201.488 50.2268 201.408C50.0722 201.328 49.8242 201.24 49.4828 201.144C49.1522 201.053 48.8828 200.965 48.6748 200.88C48.4668 200.795 48.2855 200.664 48.1308 200.488C47.9815 200.312 47.9068 200.08 47.9068 199.792C47.9068 199.557 47.9762 199.344 48.1148 199.152C48.2535 198.955 48.4508 198.8 48.7068 198.688C48.9682 198.576 49.2668 198.52 49.6028 198.52C50.1042 198.52 50.5068 198.648 50.8108 198.904C51.1202 199.155 51.2855 199.499 51.3068 199.936H50.3948C50.3788 199.739 50.2988 199.581 50.1548 199.464C50.0108 199.347 49.8162 199.288 49.5708 199.288C49.3308 199.288 49.1468 199.333 49.0188 199.424C48.8908 199.515 48.8268 199.635 48.8268 199.784C48.8268 199.901 48.8695 200 48.9548 200.08C49.0402 200.16 49.1442 200.224 49.2668 200.272C49.3895 200.315 49.5708 200.371 49.8108 200.44C50.1308 200.525 50.3922 200.613 50.5948 200.704C50.8028 200.789 50.9815 200.917 51.1308 201.088C51.2802 201.259 51.3575 201.485 51.3628 201.768C51.3628 202.019 51.2935 202.243 51.1548 202.44C51.0162 202.637 50.8188 202.792 50.5628 202.904C50.3122 203.016 50.0162 203.072 49.6748 203.072ZM53.9483 203.072C53.6016 203.072 53.2896 203.011 53.0123 202.888C52.7403 202.76 52.5243 202.589 52.3643 202.376C52.2043 202.157 52.1189 201.915 52.1083 201.648H53.0523C53.0683 201.835 53.1563 201.992 53.3163 202.12C53.4816 202.243 53.6869 202.304 53.9323 202.304C54.1883 202.304 54.3856 202.256 54.5243 202.16C54.6683 202.059 54.7403 201.931 54.7403 201.776C54.7403 201.611 54.6603 201.488 54.5003 201.408C54.3456 201.328 54.0976 201.24 53.7563 201.144C53.4256 201.053 53.1563 200.965 52.9483 200.88C52.7403 200.795 52.5589 200.664 52.4043 200.488C52.2549 200.312 52.1803 200.08 52.1803 199.792C52.1803 199.557 52.2496 199.344 52.3883 199.152C52.5269 198.955 52.7243 198.8 52.9803 198.688C53.2416 198.576 53.5403 198.52 53.8763 198.52C54.3776 198.52 54.7803 198.648 55.0843 198.904C55.3936 199.155 55.5589 199.499 55.5803 199.936H54.6683C54.6523 199.739 54.5723 199.581 54.4283 199.464C54.2843 199.347 54.0896 199.288 53.8443 199.288C53.6043 199.288 53.4203 199.333 53.2923 199.424C53.1643 199.515 53.1003 199.635 53.1003 199.784C53.1003 199.901 53.1429 200 53.2283 200.08C53.3136 200.16 53.4176 200.224 53.5403 200.272C53.6629 200.315 53.8443 200.371 54.0843 200.44C54.4043 200.525 54.6656 200.613 54.8683 200.704C55.0763 200.789 55.2549 200.917 55.4043 201.088C55.5536 201.259 55.6309 201.485 55.6363 201.768C55.6363 202.019 55.5669 202.243 55.4283 202.44C55.2896 202.637 55.0923 202.792 54.8363 202.904C54.5856 203.016 54.2896 203.072 53.9483 203.072ZM57.0857 198.008C56.9204 198.008 56.7817 197.952 56.6697 197.84C56.5577 197.728 56.5017 197.589 56.5017 197.424C56.5017 197.259 56.5577 197.12 56.6697 197.008C56.7817 196.896 56.9204 196.84 57.0857 196.84C57.2457 196.84 57.3817 196.896 57.4937 197.008C57.6057 197.12 57.6617 197.259 57.6617 197.424C57.6617 197.589 57.6057 197.728 57.4937 197.84C57.3817 197.952 57.2457 198.008 57.0857 198.008ZM57.5337 198.592V203H56.6217V198.592H57.5337ZM58.4271 200.792C58.4271 200.339 58.5177 199.941 58.6991 199.6C58.8857 199.253 59.1417 198.987 59.4671 198.8C59.7924 198.613 60.1657 198.52 60.5871 198.52C61.1204 198.52 61.5604 198.648 61.9071 198.904C62.2591 199.155 62.4964 199.515 62.6191 199.984H61.6351C61.5551 199.765 61.4271 199.595 61.2511 199.472C61.0751 199.349 60.8537 199.288 60.5871 199.288C60.2137 199.288 59.9151 199.421 59.6911 199.688C59.4724 199.949 59.3631 200.317 59.3631 200.792C59.3631 201.267 59.4724 201.637 59.6911 201.904C59.9151 202.171 60.2137 202.304 60.5871 202.304C61.1151 202.304 61.4644 202.072 61.6351 201.608H62.6191C62.4911 202.056 62.2511 202.413 61.8991 202.68C61.5471 202.941 61.1097 203.072 60.5871 203.072C60.1657 203.072 59.7924 202.979 59.4671 202.792C59.1417 202.6 58.8857 202.333 58.6991 201.992C58.5177 201.645 58.4271 201.245 58.4271 200.792ZM67.4221 197.44C68.0141 197.44 68.5314 197.555 68.9741 197.784C69.4221 198.008 69.7661 198.333 70.0061 198.76C70.2514 199.181 70.3741 199.675 70.3741 200.24C70.3741 200.805 70.2514 201.296 70.0061 201.712C69.7661 202.128 69.4221 202.448 68.9741 202.672C68.5314 202.891 68.0141 203 67.4221 203H65.6061V197.44H67.4221ZM67.4221 202.256C68.0727 202.256 68.5714 202.08 68.9181 201.728C69.2647 201.376 69.4381 200.88 69.4381 200.24C69.4381 199.595 69.2647 199.091 68.9181 198.728C68.5714 198.365 68.0727 198.184 67.4221 198.184H66.5181V202.256H67.4221ZM75.3179 200.688C75.3179 200.853 75.3073 201.003 75.2859 201.136H71.9179C71.9446 201.488 72.0753 201.771 72.3099 201.984C72.5446 202.197 72.8326 202.304 73.1739 202.304C73.6646 202.304 74.0113 202.099 74.2139 201.688H75.1979C75.0646 202.093 74.8219 202.427 74.4699 202.688C74.1233 202.944 73.6913 203.072 73.1739 203.072C72.7526 203.072 72.3739 202.979 72.0379 202.792C71.7073 202.6 71.4459 202.333 71.2539 201.992C71.0673 201.645 70.9739 201.245 70.9739 200.792C70.9739 200.339 71.0646 199.941 71.2459 199.6C71.4326 199.253 71.6913 198.987 72.0219 198.8C72.3579 198.613 72.7419 198.52 73.1739 198.52C73.5899 198.52 73.9606 198.611 74.2859 198.792C74.6113 198.973 74.8646 199.229 75.0459 199.56C75.2273 199.885 75.3179 200.261 75.3179 200.688ZM74.3659 200.4C74.3606 200.064 74.2406 199.795 74.0059 199.592C73.7713 199.389 73.4806 199.288 73.1339 199.288C72.8193 199.288 72.5499 199.389 72.3259 199.592C72.1019 199.789 71.9686 200.059 71.9259 200.4H74.3659ZM77.1274 197.08V203H76.2154V197.08H77.1274ZM82.3168 198.592V203H81.4048V202.48C81.2608 202.661 81.0715 202.805 80.8368 202.912C80.6075 203.013 80.3622 203.064 80.1008 203.064C79.7542 203.064 79.4422 202.992 79.1648 202.848C78.8928 202.704 78.6768 202.491 78.5168 202.208C78.3622 201.925 78.2848 201.584 78.2848 201.184V198.592H79.1888V201.048C79.1888 201.443 79.2875 201.747 79.4848 201.96C79.6822 202.168 79.9515 202.272 80.2928 202.272C80.6342 202.272 80.9035 202.168 81.1008 201.96C81.3035 201.747 81.4048 201.443 81.4048 201.048V198.592H82.3168ZM85.4081 200.768L86.8321 203H85.8001L84.8481 201.504L83.9521 203H83.0001L84.4241 200.832L83.0001 198.592H84.0321L84.9841 200.088L85.8801 198.592H86.8321L85.4081 200.768ZM91.5523 200.688C91.5523 200.853 91.5417 201.003 91.5203 201.136H88.1523C88.179 201.488 88.3097 201.771 88.5443 201.984C88.779 202.197 89.067 202.304 89.4083 202.304C89.899 202.304 90.2457 202.099 90.4483 201.688H91.4323C91.299 202.093 91.0563 202.427 90.7043 202.688C90.3577 202.944 89.9257 203.072 89.4083 203.072C88.987 203.072 88.6083 202.979 88.2723 202.792C87.9417 202.6 87.6803 202.333 87.4883 201.992C87.3017 201.645 87.2083 201.245 87.2083 200.792C87.2083 200.339 87.299 199.941 87.4803 199.6C87.667 199.253 87.9257 198.987 88.2563 198.8C88.5923 198.613 88.9763 198.52 89.4083 198.52C89.8243 198.52 90.195 198.611 90.5203 198.792C90.8457 198.973 91.099 199.229 91.2803 199.56C91.4617 199.885 91.5523 200.261 91.5523 200.688ZM90.6003 200.4C90.595 200.064 90.475 199.795 90.2403 199.592C90.0057 199.389 89.715 199.288 89.3683 199.288C89.0537 199.288 88.7843 199.389 88.5603 199.592C88.3363 199.789 88.203 200.059 88.1603 200.4H90.6003ZM98.4159 199.096C98.4159 199.379 98.3493 199.645 98.2159 199.896C98.0826 200.147 97.8693 200.352 97.5759 200.512C97.2826 200.667 96.9066 200.744 96.4479 200.744H95.4399V203H94.5279V197.44H96.4479C96.8746 197.44 97.2346 197.515 97.5279 197.664C97.8266 197.808 98.0479 198.005 98.1919 198.256C98.3413 198.507 98.4159 198.787 98.4159 199.096ZM96.4479 200C96.7946 200 97.0533 199.923 97.2239 199.768C97.3946 199.608 97.4799 199.384 97.4799 199.096C97.4799 198.488 97.1359 198.184 96.4479 198.184H95.4399V200H96.4479ZM99.7498 198.008C99.5844 198.008 99.4458 197.952 99.3338 197.84C99.2218 197.728 99.1658 197.589 99.1658 197.424C99.1658 197.259 99.2218 197.12 99.3338 197.008C99.4458 196.896 99.5844 196.84 99.7498 196.84C99.9098 196.84 100.046 196.896 100.158 197.008C100.27 197.12 100.326 197.259 100.326 197.424C100.326 197.589 100.27 197.728 100.158 197.84C100.046 197.952 99.9098 198.008 99.7498 198.008ZM100.198 198.592V203H99.2858V198.592H100.198ZM102.203 202.256H104.203V203H101.147V202.256L103.155 199.336H101.147V198.592H104.203V199.336L102.203 202.256ZM105.969 202.256H107.969V203H104.913V202.256L106.921 199.336H104.913V198.592H107.969V199.336L105.969 202.256ZM108.622 200.776C108.622 200.333 108.713 199.941 108.894 199.6C109.081 199.259 109.332 198.995 109.646 198.808C109.966 198.616 110.318 198.52 110.702 198.52C111.049 198.52 111.35 198.589 111.606 198.728C111.868 198.861 112.076 199.029 112.23 199.232V198.592H113.15V203H112.23V202.344C112.076 202.552 111.865 202.725 111.598 202.864C111.332 203.003 111.028 203.072 110.686 203.072C110.308 203.072 109.961 202.976 109.646 202.784C109.332 202.587 109.081 202.315 108.894 201.968C108.713 201.616 108.622 201.219 108.622 200.776ZM112.23 200.792C112.23 200.488 112.166 200.224 112.038 200C111.916 199.776 111.753 199.605 111.55 199.488C111.348 199.371 111.129 199.312 110.894 199.312C110.66 199.312 110.441 199.371 110.238 199.488C110.036 199.6 109.87 199.768 109.742 199.992C109.62 200.211 109.558 200.472 109.558 200.776C109.558 201.08 109.62 201.347 109.742 201.576C109.87 201.805 110.036 201.981 110.238 202.104C110.446 202.221 110.665 202.28 110.894 202.28C111.129 202.28 111.348 202.221 111.55 202.104C111.753 201.987 111.916 201.816 112.038 201.592C112.166 201.363 112.23 201.096 112.23 200.792Z" fill="black"/>
<path d="M84.13 214.03V214.774H82.65V219.59H81.738V214.774H80.25V214.03H84.13ZM87.3336 215.11C87.6696 215.11 87.9682 215.182 88.2296 215.326C88.4962 215.47 88.7042 215.684 88.8536 215.966C89.0082 216.249 89.0856 216.59 89.0856 216.99V219.59H88.1816V217.126C88.1816 216.732 88.0829 216.43 87.8856 216.222C87.6882 216.009 87.4189 215.902 87.0776 215.902C86.7362 215.902 86.4642 216.009 86.2616 216.222C86.0642 216.43 85.9656 216.732 85.9656 217.126V219.59H85.0536V213.67H85.9656V215.694C86.1202 215.508 86.3149 215.364 86.5496 215.262C86.7896 215.161 87.0509 215.11 87.3336 215.11ZM94.2889 217.278C94.2889 217.444 94.2782 217.593 94.2569 217.726H90.8889C90.9156 218.078 91.0462 218.361 91.2809 218.574C91.5156 218.788 91.8036 218.894 92.1449 218.894C92.6356 218.894 92.9822 218.689 93.1849 218.278H94.1689C94.0356 218.684 93.7929 219.017 93.4409 219.278C93.0942 219.534 92.6622 219.662 92.1449 219.662C91.7236 219.662 91.3449 219.569 91.0089 219.382C90.6782 219.19 90.4169 218.924 90.2249 218.582C90.0382 218.236 89.9449 217.836 89.9449 217.382C89.9449 216.929 90.0356 216.532 90.2169 216.19C90.4036 215.844 90.6622 215.577 90.9929 215.39C91.3289 215.204 91.7129 215.11 92.1449 215.11C92.5609 215.11 92.9316 215.201 93.2569 215.382C93.5822 215.564 93.8356 215.82 94.0169 216.15C94.1982 216.476 94.2889 216.852 94.2889 217.278ZM93.3369 216.99C93.3316 216.654 93.2116 216.385 92.9769 216.182C92.7422 215.98 92.4516 215.878 92.1049 215.878C91.7902 215.878 91.5209 215.98 91.2969 216.182C91.0729 216.38 90.9396 216.649 90.8969 216.99H93.3369ZM101.705 214.03V219.59H100.793V217.158H98.1765V219.59H97.2645V214.03H98.1765V216.414H100.793V214.03H101.705ZM102.601 217.366C102.601 216.924 102.692 216.532 102.873 216.19C103.06 215.849 103.31 215.585 103.625 215.398C103.945 215.206 104.297 215.11 104.681 215.11C105.028 215.11 105.329 215.18 105.585 215.318C105.846 215.452 106.054 215.62 106.209 215.822V215.182H107.129V219.59H106.209V218.934C106.054 219.142 105.844 219.316 105.577 219.454C105.31 219.593 105.006 219.662 104.665 219.662C104.286 219.662 103.94 219.566 103.625 219.374C103.31 219.177 103.06 218.905 102.873 218.558C102.692 218.206 102.601 217.809 102.601 217.366ZM106.209 217.382C106.209 217.078 106.145 216.814 106.017 216.59C105.894 216.366 105.732 216.196 105.529 216.078C105.326 215.961 105.108 215.902 104.873 215.902C104.638 215.902 104.42 215.961 104.217 216.078C104.014 216.19 103.849 216.358 103.721 216.582C103.598 216.801 103.537 217.062 103.537 217.366C103.537 217.67 103.598 217.937 103.721 218.166C103.849 218.396 104.014 218.572 104.217 218.694C104.425 218.812 104.644 218.87 104.873 218.87C105.108 218.87 105.326 218.812 105.529 218.694C105.732 218.577 105.894 218.406 106.017 218.182C106.145 217.953 106.209 217.686 106.209 217.382ZM114.247 215.182L112.879 219.59H111.919L111.031 216.334L110.143 219.59H109.183L107.807 215.182H108.735L109.655 218.726L110.591 215.182H111.543L112.439 218.71L113.351 215.182H114.247ZM114.625 217.366C114.625 216.924 114.715 216.532 114.897 216.19C115.083 215.849 115.334 215.585 115.649 215.398C115.969 215.206 116.321 215.11 116.705 215.11C117.051 215.11 117.353 215.18 117.609 215.318C117.87 215.452 118.078 215.62 118.233 215.822V215.182H119.153V219.59H118.233V218.934C118.078 219.142 117.867 219.316 117.601 219.454C117.334 219.593 117.03 219.662 116.689 219.662C116.31 219.662 115.963 219.566 115.649 219.374C115.334 219.177 115.083 218.905 114.897 218.558C114.715 218.206 114.625 217.809 114.625 217.366ZM118.233 217.382C118.233 217.078 118.169 216.814 118.041 216.59C117.918 216.366 117.755 216.196 117.553 216.078C117.35 215.961 117.131 215.902 116.897 215.902C116.662 215.902 116.443 215.961 116.241 216.078C116.038 216.19 115.873 216.358 115.745 216.582C115.622 216.801 115.561 217.062 115.561 217.366C115.561 217.67 115.622 217.937 115.745 218.166C115.873 218.396 116.038 218.572 116.241 218.694C116.449 218.812 116.667 218.87 116.897 218.87C117.131 218.87 117.35 218.812 117.553 218.694C117.755 218.577 117.918 218.406 118.041 218.182C118.169 217.953 118.233 217.686 118.233 217.382ZM120.814 214.598C120.649 214.598 120.51 214.542 120.398 214.43C120.286 214.318 120.23 214.18 120.23 214.014C120.23 213.849 120.286 213.71 120.398 213.598C120.51 213.486 120.649 213.43 120.814 213.43C120.974 213.43 121.11 213.486 121.222 213.598C121.334 213.71 121.39 213.849 121.39 214.014C121.39 214.18 121.334 214.318 121.222 214.43C121.11 214.542 120.974 214.598 120.814 214.598ZM121.262 215.182V219.59H120.35V215.182H121.262ZM122.924 214.598C122.758 214.598 122.62 214.542 122.508 214.43C122.396 214.318 122.34 214.18 122.34 214.014C122.34 213.849 122.396 213.71 122.508 213.598C122.62 213.486 122.758 213.43 122.924 213.43C123.084 213.43 123.22 213.486 123.332 213.598C123.444 213.71 123.5 213.849 123.5 214.014C123.5 214.18 123.444 214.318 123.332 214.43C123.22 214.542 123.084 214.598 122.924 214.598ZM123.372 215.182V219.59H122.46V215.182H123.372ZM124.265 217.366C124.265 216.924 124.356 216.532 124.537 216.19C124.724 215.849 124.975 215.585 125.289 215.398C125.609 215.206 125.961 215.11 126.345 215.11C126.692 215.11 126.993 215.18 127.249 215.318C127.511 215.452 127.719 215.62 127.873 215.822V215.182H128.793V219.59H127.873V218.934C127.719 219.142 127.508 219.316 127.241 219.454C126.975 219.593 126.671 219.662 126.329 219.662C125.951 219.662 125.604 219.566 125.289 219.374C124.975 219.177 124.724 218.905 124.537 218.558C124.356 218.206 124.265 217.809 124.265 217.366ZM127.873 217.382C127.873 217.078 127.809 216.814 127.681 216.59C127.559 216.366 127.396 216.196 127.193 216.078C126.991 215.961 126.772 215.902 126.537 215.902C126.303 215.902 126.084 215.961 125.881 216.078C125.679 216.19 125.513 216.358 125.385 216.582C125.263 216.801 125.201 217.062 125.201 217.366C125.201 217.67 125.263 217.937 125.385 218.166C125.513 218.396 125.679 218.572 125.881 218.694C126.089 218.812 126.308 218.87 126.537 218.87C126.772 218.87 126.991 218.812 127.193 218.694C127.396 218.577 127.559 218.406 127.681 218.182C127.809 217.953 127.873 217.686 127.873 217.382ZM132.215 215.11C132.562 215.11 132.871 215.182 133.143 215.326C133.42 215.47 133.636 215.684 133.791 215.966C133.946 216.249 134.023 216.59 134.023 216.99V219.59H133.119V217.126C133.119 216.732 133.02 216.43 132.823 216.222C132.626 216.009 132.356 215.902 132.015 215.902C131.674 215.902 131.402 216.009 131.199 216.222C131.002 216.43 130.903 216.732 130.903 217.126V219.59H129.991V215.182H130.903V215.686C131.052 215.505 131.242 215.364 131.471 215.262C131.706 215.161 131.954 215.11 132.215 215.11ZM141.153 215.686C141.153 215.969 141.086 216.236 140.953 216.486C140.819 216.737 140.606 216.942 140.313 217.102C140.019 217.257 139.643 217.334 139.185 217.334H138.177V219.59H137.265V214.03H139.185C139.611 214.03 139.971 214.105 140.265 214.254C140.563 214.398 140.785 214.596 140.929 214.846C141.078 215.097 141.153 215.377 141.153 215.686ZM139.185 216.59C139.531 216.59 139.79 216.513 139.961 216.358C140.131 216.198 140.217 215.974 140.217 215.686C140.217 215.078 139.873 214.774 139.185 214.774H138.177V216.59H139.185ZM142.486 214.598C142.321 214.598 142.182 214.542 142.07 214.43C141.958 214.318 141.902 214.18 141.902 214.014C141.902 213.849 141.958 213.71 142.07 213.598C142.182 213.486 142.321 213.43 142.486 213.43C142.646 213.43 142.782 213.486 142.894 213.598C143.006 213.71 143.062 213.849 143.062 214.014C143.062 214.18 143.006 214.318 142.894 214.43C142.782 214.542 142.646 214.598 142.486 214.598ZM142.934 215.182V219.59H142.022V215.182H142.934ZM144.94 218.846H146.94V219.59H143.884V218.846L145.892 215.926H143.884V215.182H146.94V215.926L144.94 218.846ZM148.705 218.846H150.705V219.59H147.649V218.846L149.657 215.926H147.649V215.182H150.705V215.926L148.705 218.846ZM151.359 217.366C151.359 216.924 151.45 216.532 151.631 216.19C151.818 215.849 152.068 215.585 152.383 215.398C152.703 215.206 153.055 215.11 153.439 215.11C153.786 215.11 154.087 215.18 154.343 215.318C154.604 215.452 154.812 215.62 154.967 215.822V215.182H155.887V219.59H154.967V218.934C154.812 219.142 154.602 219.316 154.335 219.454C154.068 219.593 153.764 219.662 153.423 219.662C153.044 219.662 152.698 219.566 152.383 219.374C152.068 219.177 151.818 218.905 151.631 218.558C151.45 218.206 151.359 217.809 151.359 217.366ZM154.967 217.382C154.967 217.078 154.903 216.814 154.775 216.59C154.652 216.366 154.49 216.196 154.287 216.078C154.084 215.961 153.866 215.902 153.631 215.902C153.396 215.902 153.178 215.961 152.975 216.078C152.772 216.19 152.607 216.358 152.479 216.582C152.356 216.801 152.295 217.062 152.295 217.366C152.295 217.67 152.356 217.937 152.479 218.166C152.607 218.396 152.772 218.572 152.975 218.694C153.183 218.812 153.402 218.87 153.631 218.87C153.866 218.87 154.084 218.812 154.287 218.694C154.49 218.577 154.652 218.406 154.775 218.182C154.903 217.953 154.967 217.686 154.967 217.382Z" fill="black"/>
<path d="M136.504 197.03V197.774H135.024V202.59H134.112V197.774H132.624V197.03H136.504ZM139.708 198.11C140.044 198.11 140.343 198.182 140.604 198.326C140.871 198.47 141.079 198.684 141.228 198.966C141.383 199.249 141.46 199.59 141.46 199.99V202.59H140.556V200.126C140.556 199.732 140.457 199.43 140.26 199.222C140.063 199.009 139.793 198.902 139.452 198.902C139.111 198.902 138.839 199.009 138.636 199.222C138.439 199.43 138.34 199.732 138.34 200.126V202.59H137.428V196.67H138.34V198.694C138.495 198.508 138.689 198.364 138.924 198.262C139.164 198.161 139.425 198.11 139.708 198.11ZM146.663 200.278C146.663 200.444 146.653 200.593 146.631 200.726H143.263C143.29 201.078 143.421 201.361 143.655 201.574C143.89 201.788 144.178 201.894 144.519 201.894C145.01 201.894 145.357 201.689 145.559 201.278H146.543C146.41 201.684 146.167 202.017 145.815 202.278C145.469 202.534 145.037 202.662 144.519 202.662C144.098 202.662 143.719 202.569 143.383 202.382C143.053 202.19 142.791 201.924 142.599 201.582C142.413 201.236 142.319 200.836 142.319 200.382C142.319 199.929 142.41 199.532 142.591 199.19C142.778 198.844 143.037 198.577 143.367 198.39C143.703 198.204 144.087 198.11 144.519 198.11C144.935 198.11 145.306 198.201 145.631 198.382C145.957 198.564 146.21 198.82 146.391 199.15C146.573 199.476 146.663 199.852 146.663 200.278ZM145.711 199.99C145.706 199.654 145.586 199.385 145.351 199.182C145.117 198.98 144.826 198.878 144.479 198.878C144.165 198.878 143.895 198.98 143.671 199.182C143.447 199.38 143.314 199.649 143.271 199.99H145.711ZM153.527 198.686C153.527 198.969 153.46 199.236 153.327 199.486C153.194 199.737 152.98 199.942 152.687 200.102C152.394 200.257 152.018 200.334 151.559 200.334H150.551V202.59H149.639V197.03H151.559C151.986 197.03 152.346 197.105 152.639 197.254C152.938 197.398 153.159 197.596 153.303 197.846C153.452 198.097 153.527 198.377 153.527 198.686ZM151.559 199.59C151.906 199.59 152.164 199.513 152.335 199.358C152.506 199.198 152.591 198.974 152.591 198.686C152.591 198.078 152.247 197.774 151.559 197.774H150.551V199.59H151.559ZM158.437 200.278C158.437 200.444 158.426 200.593 158.405 200.726H155.037C155.064 201.078 155.194 201.361 155.429 201.574C155.664 201.788 155.952 201.894 156.293 201.894C156.784 201.894 157.13 201.689 157.333 201.278H158.317C158.184 201.684 157.941 202.017 157.589 202.278C157.242 202.534 156.81 202.662 156.293 202.662C155.872 202.662 155.493 202.569 155.157 202.382C154.826 202.19 154.565 201.924 154.373 201.582C154.186 201.236 154.093 200.836 154.093 200.382C154.093 199.929 154.184 199.532 154.365 199.19C154.552 198.844 154.81 198.577 155.141 198.39C155.477 198.204 155.861 198.11 156.293 198.11C156.709 198.11 157.08 198.201 157.405 198.382C157.73 198.564 157.984 198.82 158.165 199.15C158.346 199.476 158.437 199.852 158.437 200.278ZM157.485 199.99C157.48 199.654 157.36 199.385 157.125 199.182C156.89 198.98 156.6 198.878 156.253 198.878C155.938 198.878 155.669 198.98 155.445 199.182C155.221 199.38 155.088 199.649 155.045 199.99H157.485ZM160.246 198.83C160.401 198.628 160.612 198.457 160.878 198.318C161.145 198.18 161.446 198.11 161.782 198.11C162.166 198.11 162.516 198.206 162.83 198.398C163.15 198.585 163.401 198.849 163.582 199.19C163.764 199.532 163.854 199.924 163.854 200.366C163.854 200.809 163.764 201.206 163.582 201.558C163.401 201.905 163.15 202.177 162.83 202.374C162.516 202.566 162.166 202.662 161.782 202.662C161.446 202.662 161.148 202.596 160.886 202.462C160.625 202.324 160.412 202.153 160.246 201.95V204.686H159.334V198.182H160.246V198.83ZM162.926 200.366C162.926 200.062 162.862 199.801 162.734 199.582C162.612 199.358 162.446 199.19 162.238 199.078C162.036 198.961 161.817 198.902 161.582 198.902C161.353 198.902 161.134 198.961 160.926 199.078C160.724 199.196 160.558 199.366 160.43 199.59C160.308 199.814 160.246 200.078 160.246 200.382C160.246 200.686 160.308 200.953 160.43 201.182C160.558 201.406 160.724 201.577 160.926 201.694C161.134 201.812 161.353 201.87 161.582 201.87C161.817 201.87 162.036 201.812 162.238 201.694C162.446 201.572 162.612 201.396 162.734 201.166C162.862 200.937 162.926 200.67 162.926 200.366ZM165.668 198.83C165.823 198.628 166.034 198.457 166.3 198.318C166.567 198.18 166.868 198.11 167.204 198.11C167.588 198.11 167.938 198.206 168.252 198.398C168.572 198.585 168.823 198.849 169.004 199.19C169.186 199.532 169.276 199.924 169.276 200.366C169.276 200.809 169.186 201.206 169.004 201.558C168.823 201.905 168.572 202.177 168.252 202.374C167.938 202.566 167.588 202.662 167.204 202.662C166.868 202.662 166.57 202.596 166.308 202.462C166.047 202.324 165.834 202.153 165.668 201.95V204.686H164.756V198.182H165.668V198.83ZM168.348 200.366C168.348 200.062 168.284 199.801 168.156 199.582C168.034 199.358 167.868 199.19 167.66 199.078C167.458 198.961 167.239 198.902 167.004 198.902C166.775 198.902 166.556 198.961 166.348 199.078C166.146 199.196 165.98 199.366 165.852 199.59C165.73 199.814 165.668 200.078 165.668 200.382C165.668 200.686 165.73 200.953 165.852 201.182C165.98 201.406 166.146 201.577 166.348 201.694C166.556 201.812 166.775 201.87 167.004 201.87C167.239 201.87 167.458 201.812 167.66 201.694C167.868 201.572 168.034 201.396 168.156 201.166C168.284 200.937 168.348 200.67 168.348 200.366ZM174.218 200.278C174.218 200.444 174.207 200.593 174.186 200.726H170.818C170.845 201.078 170.975 201.361 171.21 201.574C171.445 201.788 171.733 201.894 172.074 201.894C172.565 201.894 172.911 201.689 173.114 201.278H174.098C173.965 201.684 173.722 202.017 173.37 202.278C173.023 202.534 172.591 202.662 172.074 202.662C171.653 202.662 171.274 202.569 170.938 202.382C170.607 202.19 170.346 201.924 170.154 201.582C169.967 201.236 169.874 200.836 169.874 200.382C169.874 199.929 169.965 199.532 170.146 199.19C170.333 198.844 170.591 198.577 170.922 198.39C171.258 198.204 171.642 198.11 172.074 198.11C172.49 198.11 172.861 198.201 173.186 198.382C173.511 198.564 173.765 198.82 173.946 199.15C174.127 199.476 174.218 199.852 174.218 200.278ZM173.266 199.99C173.261 199.654 173.141 199.385 172.906 199.182C172.671 198.98 172.381 198.878 172.034 198.878C171.719 198.878 171.45 198.98 171.226 199.182C171.002 199.38 170.869 199.649 170.826 199.99H173.266ZM176.028 198.822C176.161 198.598 176.337 198.425 176.556 198.302C176.78 198.174 177.044 198.11 177.348 198.11V199.054H177.116C176.758 199.054 176.486 199.145 176.3 199.326C176.118 199.508 176.028 199.822 176.028 200.27V202.59H175.116V198.182H176.028V198.822ZM180.098 202.662C179.682 202.662 179.306 202.569 178.97 202.382C178.634 202.19 178.37 201.924 178.178 201.582C177.986 201.236 177.89 200.836 177.89 200.382C177.89 199.934 177.989 199.537 178.186 199.19C178.383 198.844 178.653 198.577 178.994 198.39C179.335 198.204 179.717 198.11 180.138 198.11C180.559 198.11 180.941 198.204 181.282 198.39C181.623 198.577 181.893 198.844 182.09 199.19C182.287 199.537 182.386 199.934 182.386 200.382C182.386 200.83 182.285 201.228 182.082 201.574C181.879 201.921 181.602 202.19 181.25 202.382C180.903 202.569 180.519 202.662 180.098 202.662ZM180.098 201.87C180.333 201.87 180.551 201.814 180.754 201.702C180.962 201.59 181.13 201.422 181.258 201.198C181.386 200.974 181.45 200.702 181.45 200.382C181.45 200.062 181.389 199.793 181.266 199.574C181.143 199.35 180.981 199.182 180.778 199.07C180.575 198.958 180.357 198.902 180.122 198.902C179.887 198.902 179.669 198.958 179.466 199.07C179.269 199.182 179.111 199.35 178.994 199.574C178.877 199.793 178.818 200.062 178.818 200.382C178.818 200.857 178.938 201.225 179.178 201.486C179.423 201.742 179.73 201.87 180.098 201.87ZM185.511 198.11C185.858 198.11 186.167 198.182 186.439 198.326C186.717 198.47 186.933 198.684 187.087 198.966C187.242 199.249 187.319 199.59 187.319 199.99V202.59H186.415V200.126C186.415 199.732 186.317 199.43 186.119 199.222C185.922 199.009 185.653 198.902 185.311 198.902C184.97 198.902 184.698 199.009 184.495 199.222C184.298 199.43 184.199 199.732 184.199 200.126V202.59H183.287V198.182H184.199V198.686C184.349 198.505 184.538 198.364 184.767 198.262C185.002 198.161 185.25 198.11 185.511 198.11ZM188.947 197.598C188.781 197.598 188.643 197.542 188.531 197.43C188.419 197.318 188.363 197.18 188.363 197.014C188.363 196.849 188.419 196.71 188.531 196.598C188.643 196.486 188.781 196.43 188.947 196.43C189.107 196.43 189.243 196.486 189.355 196.598C189.467 196.71 189.523 196.849 189.523 197.014C189.523 197.18 189.467 197.318 189.355 197.43C189.243 197.542 189.107 197.598 188.947 197.598ZM189.395 198.182V202.59H188.483V198.182H189.395ZM196.558 198.686C196.558 198.969 196.492 199.236 196.358 199.486C196.225 199.737 196.012 199.942 195.718 200.102C195.425 200.257 195.049 200.334 194.59 200.334H193.582V202.59H192.67V197.03H194.59C195.017 197.03 195.377 197.105 195.67 197.254C195.969 197.398 196.19 197.596 196.334 197.846C196.484 198.097 196.558 198.377 196.558 198.686ZM194.59 199.59C194.937 199.59 195.196 199.513 195.366 199.358C195.537 199.198 195.622 198.974 195.622 198.686C195.622 198.078 195.278 197.774 194.59 197.774H193.582V199.59H194.59ZM197.892 197.598C197.727 197.598 197.588 197.542 197.476 197.43C197.364 197.318 197.308 197.18 197.308 197.014C197.308 196.849 197.364 196.71 197.476 196.598C197.588 196.486 197.727 196.43 197.892 196.43C198.052 196.43 198.188 196.486 198.3 196.598C198.412 196.71 198.468 196.849 198.468 197.014C198.468 197.18 198.412 197.318 198.3 197.43C198.188 197.542 198.052 197.598 197.892 197.598ZM198.34 198.182V202.59H197.428V198.182H198.34ZM200.345 201.846H202.345V202.59H199.289V201.846L201.297 198.926H199.289V198.182H202.345V198.926L200.345 201.846ZM204.111 201.846H206.111V202.59H203.055V201.846L205.063 198.926H203.055V198.182H206.111V198.926L204.111 201.846ZM206.765 200.366C206.765 199.924 206.855 199.532 207.037 199.19C207.223 198.849 207.474 198.585 207.789 198.398C208.109 198.206 208.461 198.11 208.845 198.11C209.191 198.11 209.493 198.18 209.749 198.318C210.01 198.452 210.218 198.62 210.373 198.822V198.182H211.293V202.59H210.373V201.934C210.218 202.142 210.007 202.316 209.741 202.454C209.474 202.593 209.17 202.662 208.829 202.662C208.45 202.662 208.103 202.566 207.789 202.374C207.474 202.177 207.223 201.905 207.037 201.558C206.855 201.206 206.765 200.809 206.765 200.366ZM210.373 200.382C210.373 200.078 210.309 199.814 210.181 199.59C210.058 199.366 209.895 199.196 209.693 199.078C209.49 198.961 209.271 198.902 209.037 198.902C208.802 198.902 208.583 198.961 208.381 199.078C208.178 199.19 208.013 199.358 207.885 199.582C207.762 199.801 207.701 200.062 207.701 200.366C207.701 200.67 207.762 200.937 207.885 201.166C208.013 201.396 208.178 201.572 208.381 201.694C208.589 201.812 208.807 201.87 209.037 201.87C209.271 201.87 209.49 201.812 209.693 201.694C209.895 201.577 210.058 201.406 210.181 201.182C210.309 200.953 210.373 200.686 210.373 200.382Z" fill="black"/>
<path d="M174.994 214.03V214.774H173.514V219.59H172.602V214.774H171.114V214.03H174.994ZM178.197 215.11C178.533 215.11 178.832 215.182 179.093 215.326C179.36 215.47 179.568 215.684 179.717 215.966C179.872 216.249 179.949 216.59 179.949 216.99V219.59H179.045V217.126C179.045 216.732 178.947 216.43 178.749 216.222C178.552 216.009 178.283 215.902 177.941 215.902C177.6 215.902 177.328 216.009 177.125 216.222C176.928 216.43 176.829 216.732 176.829 217.126V219.59H175.917V213.67H176.829V215.694C176.984 215.508 177.179 215.364 177.413 215.262C177.653 215.161 177.915 215.11 178.197 215.11ZM185.153 217.278C185.153 217.444 185.142 217.593 185.121 217.726H181.753C181.779 218.078 181.91 218.361 182.145 218.574C182.379 218.788 182.667 218.894 183.009 218.894C183.499 218.894 183.846 218.689 184.049 218.278H185.033C184.899 218.684 184.657 219.017 184.305 219.278C183.958 219.534 183.526 219.662 183.009 219.662C182.587 219.662 182.209 219.569 181.873 219.382C181.542 219.19 181.281 218.924 181.089 218.582C180.902 218.236 180.809 217.836 180.809 217.382C180.809 216.929 180.899 216.532 181.081 216.19C181.267 215.844 181.526 215.577 181.857 215.39C182.193 215.204 182.577 215.11 183.009 215.11C183.425 215.11 183.795 215.201 184.121 215.382C184.446 215.564 184.699 215.82 184.881 216.15C185.062 216.476 185.153 216.852 185.153 217.278ZM184.201 216.99C184.195 216.654 184.075 216.385 183.841 216.182C183.606 215.98 183.315 215.878 182.969 215.878C182.654 215.878 182.385 215.98 182.161 216.182C181.937 216.38 181.803 216.649 181.761 216.99H184.201ZM191.104 216.734C191.403 216.788 191.656 216.945 191.864 217.206C192.072 217.468 192.176 217.764 192.176 218.094C192.176 218.377 192.102 218.633 191.952 218.862C191.808 219.086 191.598 219.265 191.32 219.398C191.043 219.526 190.72 219.59 190.352 219.59H188.128V214.03H190.248C190.627 214.03 190.952 214.094 191.224 214.222C191.496 214.35 191.702 214.524 191.84 214.742C191.979 214.956 192.048 215.196 192.048 215.462C192.048 215.782 191.963 216.049 191.792 216.262C191.622 216.476 191.392 216.633 191.104 216.734ZM189.04 216.366H190.168C190.467 216.366 190.699 216.3 190.864 216.166C191.035 216.028 191.12 215.83 191.12 215.574C191.12 215.324 191.035 215.129 190.864 214.99C190.699 214.846 190.467 214.774 190.168 214.774H189.04V216.366ZM190.272 218.846C190.582 218.846 190.824 218.772 191 218.622C191.176 218.473 191.264 218.265 191.264 217.998C191.264 217.726 191.171 217.51 190.984 217.35C190.798 217.19 190.55 217.11 190.24 217.11H189.04V218.846H190.272ZM192.863 217.366C192.863 216.924 192.954 216.532 193.135 216.19C193.322 215.849 193.573 215.585 193.887 215.398C194.207 215.206 194.559 215.11 194.943 215.11C195.29 215.11 195.591 215.18 195.847 215.318C196.109 215.452 196.317 215.62 196.471 215.822V215.182H197.391V219.59H196.471V218.934C196.317 219.142 196.106 219.316 195.839 219.454C195.573 219.593 195.269 219.662 194.927 219.662C194.549 219.662 194.202 219.566 193.887 219.374C193.573 219.177 193.322 218.905 193.135 218.558C192.954 218.206 192.863 217.809 192.863 217.366ZM196.471 217.382C196.471 217.078 196.407 216.814 196.279 216.59C196.157 216.366 195.994 216.196 195.791 216.078C195.589 215.961 195.37 215.902 195.135 215.902C194.901 215.902 194.682 215.961 194.479 216.078C194.277 216.19 194.111 216.358 193.983 216.582C193.861 216.801 193.799 217.062 193.799 217.366C193.799 217.67 193.861 217.937 193.983 218.166C194.111 218.396 194.277 218.572 194.479 218.694C194.687 218.812 194.906 218.87 195.135 218.87C195.37 218.87 195.589 218.812 195.791 218.694C195.994 218.577 196.157 218.406 196.279 218.182C196.407 217.953 196.471 217.686 196.471 217.382ZM199.501 215.822C199.635 215.598 199.811 215.425 200.029 215.302C200.253 215.174 200.517 215.11 200.821 215.11V216.054H200.589C200.232 216.054 199.96 216.145 199.773 216.326C199.592 216.508 199.501 216.822 199.501 217.27V219.59H198.589V215.182H199.501V215.822ZM202.572 215.838C202.726 215.625 202.937 215.452 203.204 215.318C203.476 215.18 203.777 215.11 204.108 215.11C204.497 215.11 204.849 215.204 205.164 215.39C205.478 215.577 205.726 215.844 205.908 216.19C206.089 216.532 206.18 216.924 206.18 217.366C206.18 217.809 206.089 218.206 205.908 218.558C205.726 218.905 205.476 219.177 205.156 219.374C204.841 219.566 204.492 219.662 204.108 219.662C203.766 219.662 203.462 219.596 203.196 219.462C202.934 219.329 202.726 219.158 202.572 218.95V219.59H201.66V213.67H202.572V215.838ZM205.252 217.366C205.252 217.062 205.188 216.801 205.06 216.582C204.937 216.358 204.772 216.19 204.564 216.078C204.361 215.961 204.142 215.902 203.908 215.902C203.678 215.902 203.46 215.961 203.252 216.078C203.049 216.196 202.884 216.366 202.756 216.59C202.633 216.814 202.572 217.078 202.572 217.382C202.572 217.686 202.633 217.953 202.756 218.182C202.884 218.406 203.049 218.577 203.252 218.694C203.46 218.812 203.678 218.87 203.908 218.87C204.142 218.87 204.361 218.812 204.564 218.694C204.772 218.572 204.937 218.396 205.06 218.166C205.188 217.937 205.252 217.67 205.252 217.366ZM211.121 217.278C211.121 217.444 211.111 217.593 211.089 217.726H207.721C207.748 218.078 207.879 218.361 208.113 218.574C208.348 218.788 208.636 218.894 208.977 218.894C209.468 218.894 209.815 218.689 210.017 218.278H211.001C210.868 218.684 210.625 219.017 210.273 219.278C209.927 219.534 209.495 219.662 208.977 219.662C208.556 219.662 208.177 219.569 207.841 219.382C207.511 219.19 207.249 218.924 207.057 218.582C206.871 218.236 206.777 217.836 206.777 217.382C206.777 216.929 206.868 216.532 207.049 216.19C207.236 215.844 207.495 215.577 207.825 215.39C208.161 215.204 208.545 215.11 208.977 215.11C209.393 215.11 209.764 215.201 210.089 215.382C210.415 215.564 210.668 215.82 210.849 216.15C211.031 216.476 211.121 216.852 211.121 217.278ZM210.169 216.99C210.164 216.654 210.044 216.385 209.809 216.182C209.575 215.98 209.284 215.878 208.937 215.878C208.623 215.878 208.353 215.98 208.129 216.182C207.905 216.38 207.772 216.649 207.729 216.99H210.169ZM211.715 217.382C211.715 216.929 211.806 216.532 211.987 216.19C212.174 215.844 212.43 215.577 212.755 215.39C213.08 215.204 213.454 215.11 213.875 215.11C214.408 215.11 214.848 215.238 215.195 215.494C215.547 215.745 215.784 216.105 215.907 216.574H214.923C214.843 216.356 214.715 216.185 214.539 216.062C214.363 215.94 214.142 215.878 213.875 215.878C213.502 215.878 213.203 216.012 212.979 216.278C212.76 216.54 212.651 216.908 212.651 217.382C212.651 217.857 212.76 218.228 212.979 218.494C213.203 218.761 213.502 218.894 213.875 218.894C214.403 218.894 214.752 218.662 214.923 218.198H215.907C215.779 218.646 215.539 219.004 215.187 219.27C214.835 219.532 214.398 219.662 213.875 219.662C213.454 219.662 213.08 219.569 212.755 219.382C212.43 219.19 212.174 218.924 211.987 218.582C211.806 218.236 211.715 217.836 211.715 217.382ZM220.808 215.182V219.59H219.896V219.07C219.752 219.252 219.562 219.396 219.328 219.502C219.098 219.604 218.853 219.654 218.592 219.654C218.245 219.654 217.933 219.582 217.656 219.438C217.384 219.294 217.168 219.081 217.008 218.798C216.853 218.516 216.776 218.174 216.776 217.774V215.182H217.68V217.638C217.68 218.033 217.778 218.337 217.976 218.55C218.173 218.758 218.442 218.862 218.784 218.862C219.125 218.862 219.394 218.758 219.592 218.55C219.794 218.337 219.896 218.033 219.896 217.638V215.182H220.808ZM226.051 217.278C226.051 217.444 226.04 217.593 226.019 217.726H222.651C222.678 218.078 222.808 218.361 223.043 218.574C223.278 218.788 223.566 218.894 223.907 218.894C224.398 218.894 224.744 218.689 224.947 218.278H225.931C225.798 218.684 225.555 219.017 225.203 219.278C224.856 219.534 224.424 219.662 223.907 219.662C223.486 219.662 223.107 219.569 222.771 219.382C222.44 219.19 222.179 218.924 221.987 218.582C221.8 218.236 221.707 217.836 221.707 217.382C221.707 216.929 221.798 216.532 221.979 216.19C222.166 215.844 222.424 215.577 222.755 215.39C223.091 215.204 223.475 215.11 223.907 215.11C224.323 215.11 224.694 215.201 225.019 215.382C225.344 215.564 225.598 215.82 225.779 216.15C225.96 216.476 226.051 216.852 226.051 217.278ZM225.099 216.99C225.094 216.654 224.974 216.385 224.739 216.182C224.504 215.98 224.214 215.878 223.867 215.878C223.552 215.878 223.283 215.98 223.059 216.182C222.835 216.38 222.702 216.649 222.659 216.99H225.099ZM228.723 216.798C228.723 216.254 228.848 215.766 229.099 215.334C229.355 214.902 229.699 214.566 230.131 214.326C230.568 214.081 231.045 213.958 231.563 213.958C232.155 213.958 232.68 214.105 233.139 214.398C233.603 214.686 233.939 215.097 234.147 215.63H233.051C232.907 215.337 232.707 215.118 232.451 214.974C232.195 214.83 231.899 214.758 231.563 214.758C231.195 214.758 230.867 214.841 230.579 215.006C230.291 215.172 230.064 215.409 229.899 215.718C229.739 216.028 229.659 216.388 229.659 216.798C229.659 217.209 229.739 217.569 229.899 217.878C230.064 218.188 230.291 218.428 230.579 218.598C230.867 218.764 231.195 218.846 231.563 218.846C231.899 218.846 232.195 218.774 232.451 218.63C232.707 218.486 232.907 218.268 233.051 217.974H234.147C233.939 218.508 233.603 218.918 233.139 219.206C232.68 219.494 232.155 219.638 231.563 219.638C231.04 219.638 230.563 219.518 230.131 219.278C229.699 219.033 229.355 218.694 229.099 218.262C228.848 217.83 228.723 217.342 228.723 216.798ZM237.494 215.11C237.83 215.11 238.129 215.182 238.39 215.326C238.657 215.47 238.865 215.684 239.014 215.966C239.169 216.249 239.246 216.59 239.246 216.99V219.59H238.342V217.126C238.342 216.732 238.244 216.43 238.046 216.222C237.849 216.009 237.58 215.902 237.238 215.902C236.897 215.902 236.625 216.009 236.422 216.222C236.225 216.43 236.126 216.732 236.126 217.126V219.59H235.214V213.67H236.126V215.694C236.281 215.508 236.476 215.364 236.71 215.262C236.95 215.161 237.212 215.11 237.494 215.11ZM240.874 214.598C240.708 214.598 240.57 214.542 240.458 214.43C240.346 214.318 240.29 214.18 240.29 214.014C240.29 213.849 240.346 213.71 240.458 213.598C240.57 213.486 240.708 213.43 240.874 213.43C241.034 213.43 241.17 213.486 241.282 213.598C241.394 213.71 241.45 213.849 241.45 214.014C241.45 214.18 241.394 214.318 241.282 214.43C241.17 214.542 241.034 214.598 240.874 214.598ZM241.322 215.182V219.59H240.41V215.182H241.322ZM242.215 217.382C242.215 216.929 242.306 216.532 242.487 216.19C242.674 215.844 242.93 215.577 243.255 215.39C243.58 215.204 243.954 215.11 244.375 215.11C244.908 215.11 245.348 215.238 245.695 215.494C246.047 215.745 246.284 216.105 246.407 216.574H245.423C245.343 216.356 245.215 216.185 245.039 216.062C244.863 215.94 244.642 215.878 244.375 215.878C244.002 215.878 243.703 216.012 243.479 216.278C243.26 216.54 243.151 216.908 243.151 217.382C243.151 217.857 243.26 218.228 243.479 218.494C243.703 218.761 244.002 218.894 244.375 218.894C244.903 218.894 245.252 218.662 245.423 218.198H246.407C246.279 218.646 246.039 219.004 245.687 219.27C245.335 219.532 244.898 219.662 244.375 219.662C243.954 219.662 243.58 219.569 243.255 219.382C242.93 219.19 242.674 218.924 242.487 218.582C242.306 218.236 242.215 217.836 242.215 217.382ZM249.06 217.39L251.092 219.59H249.86L248.228 217.694V219.59H247.316V213.67H248.228V217.11L249.828 215.182H251.092L249.06 217.39ZM255.785 217.278C255.785 217.444 255.775 217.593 255.753 217.726H252.385C252.412 218.078 252.543 218.361 252.777 218.574C253.012 218.788 253.3 218.894 253.641 218.894C254.132 218.894 254.479 218.689 254.681 218.278H255.665C255.532 218.684 255.289 219.017 254.937 219.278C254.591 219.534 254.159 219.662 253.641 219.662C253.22 219.662 252.841 219.569 252.505 219.382C252.175 219.19 251.913 218.924 251.721 218.582C251.535 218.236 251.441 217.836 251.441 217.382C251.441 216.929 251.532 216.532 251.713 216.19C251.9 215.844 252.159 215.577 252.489 215.39C252.825 215.204 253.209 215.11 253.641 215.11C254.057 215.11 254.428 215.201 254.753 215.382C255.079 215.564 255.332 215.82 255.513 216.15C255.695 216.476 255.785 216.852 255.785 217.278ZM254.833 216.99C254.828 216.654 254.708 216.385 254.473 216.182C254.239 215.98 253.948 215.878 253.601 215.878C253.287 215.878 253.017 215.98 252.793 216.182C252.569 216.38 252.436 216.649 252.393 216.99H254.833ZM258.907 215.11C259.254 215.11 259.563 215.182 259.835 215.326C260.112 215.47 260.328 215.684 260.483 215.966C260.638 216.249 260.715 216.59 260.715 216.99V219.59H259.811V217.126C259.811 216.732 259.712 216.43 259.515 216.222C259.318 216.009 259.048 215.902 258.707 215.902C258.366 215.902 258.094 216.009 257.891 216.222C257.694 216.43 257.595 216.732 257.595 217.126V219.59H256.683V215.182H257.595V215.686C257.744 215.505 257.934 215.364 258.163 215.262C258.398 215.161 258.646 215.11 258.907 215.11ZM267.844 215.686C267.844 215.969 267.778 216.236 267.644 216.486C267.511 216.737 267.298 216.942 267.004 217.102C266.711 217.257 266.335 217.334 265.876 217.334H264.868V219.59H263.956V214.03H265.876C266.303 214.03 266.663 214.105 266.956 214.254C267.255 214.398 267.476 214.596 267.62 214.846C267.77 215.097 267.844 215.377 267.844 215.686ZM265.876 216.59C266.223 216.59 266.482 216.513 266.652 216.358C266.823 216.198 266.908 215.974 266.908 215.686C266.908 215.078 266.564 214.774 265.876 214.774H264.868V216.59H265.876ZM269.178 214.598C269.013 214.598 268.874 214.542 268.762 214.43C268.65 214.318 268.594 214.18 268.594 214.014C268.594 213.849 268.65 213.71 268.762 213.598C268.874 213.486 269.013 213.43 269.178 213.43C269.338 213.43 269.474 213.486 269.586 213.598C269.698 213.71 269.754 213.849 269.754 214.014C269.754 214.18 269.698 214.318 269.586 214.43C269.474 214.542 269.338 214.598 269.178 214.598ZM269.626 215.182V219.59H268.714V215.182H269.626ZM271.632 218.846H273.632V219.59H270.576V218.846L272.584 215.926H270.576V215.182H273.632V215.926L271.632 218.846ZM275.397 218.846H277.397V219.59H274.341V218.846L276.349 215.926H274.341V215.182H277.397V215.926L275.397 218.846ZM278.051 217.366C278.051 216.924 278.141 216.532 278.323 216.19C278.509 215.849 278.76 215.585 279.075 215.398C279.395 215.206 279.747 215.11 280.131 215.11C280.477 215.11 280.779 215.18 281.035 215.318C281.296 215.452 281.504 215.62 281.659 215.822V215.182H282.579V219.59H281.659V218.934C281.504 219.142 281.293 219.316 281.027 219.454C280.76 219.593 280.456 219.662 280.115 219.662C279.736 219.662 279.389 219.566 279.075 219.374C278.76 219.177 278.509 218.905 278.323 218.558C278.141 218.206 278.051 217.809 278.051 217.366ZM281.659 217.382C281.659 217.078 281.595 216.814 281.467 216.59C281.344 216.366 281.181 216.196 280.979 216.078C280.776 215.961 280.557 215.902 280.323 215.902C280.088 215.902 279.869 215.961 279.667 216.078C279.464 216.19 279.299 216.358 279.171 216.582C279.048 216.801 278.987 217.062 278.987 217.366C278.987 217.67 279.048 217.937 279.171 218.166C279.299 218.396 279.464 218.572 279.667 218.694C279.875 218.812 280.093 218.87 280.323 218.87C280.557 218.87 280.776 218.812 280.979 218.694C281.181 218.577 281.344 218.406 281.467 218.182C281.595 217.953 281.659 217.686 281.659 217.382Z" fill="black"/>
<path d="M238.675 195.03V195.774H237.195V200.59H236.283V195.774H234.795V195.03H238.675ZM241.878 196.11C242.214 196.11 242.513 196.182 242.774 196.326C243.041 196.47 243.249 196.684 243.398 196.966C243.553 197.249 243.63 197.59 243.63 197.99V200.59H242.726V198.126C242.726 197.732 242.628 197.43 242.43 197.222C242.233 197.009 241.964 196.902 241.622 196.902C241.281 196.902 241.009 197.009 240.806 197.222C240.609 197.43 240.51 197.732 240.51 198.126V200.59H239.598V194.67H240.51V196.694C240.665 196.508 240.86 196.364 241.094 196.262C241.334 196.161 241.596 196.11 241.878 196.11ZM248.834 198.278C248.834 198.444 248.823 198.593 248.802 198.726H245.434C245.46 199.078 245.591 199.361 245.826 199.574C246.06 199.788 246.348 199.894 246.69 199.894C247.18 199.894 247.527 199.689 247.73 199.278H248.714C248.58 199.684 248.338 200.017 247.986 200.278C247.639 200.534 247.207 200.662 246.69 200.662C246.268 200.662 245.89 200.569 245.554 200.382C245.223 200.19 244.962 199.924 244.77 199.582C244.583 199.236 244.49 198.836 244.49 198.382C244.49 197.929 244.58 197.532 244.762 197.19C244.948 196.844 245.207 196.577 245.538 196.39C245.874 196.204 246.258 196.11 246.69 196.11C247.106 196.11 247.476 196.201 247.802 196.382C248.127 196.564 248.38 196.82 248.562 197.15C248.743 197.476 248.834 197.852 248.834 198.278ZM247.882 197.99C247.876 197.654 247.756 197.385 247.522 197.182C247.287 196.98 246.996 196.878 246.65 196.878C246.335 196.878 246.066 196.98 245.842 197.182C245.618 197.38 245.484 197.649 245.442 197.99H247.882ZM255.401 195.03V195.774H253.921V200.59H253.009V195.774H251.521V195.03H255.401ZM258.605 196.11C258.941 196.11 259.24 196.182 259.501 196.326C259.768 196.47 259.976 196.684 260.125 196.966C260.28 197.249 260.357 197.59 260.357 197.99V200.59H259.453V198.126C259.453 197.732 259.354 197.43 259.157 197.222C258.96 197.009 258.69 196.902 258.349 196.902C258.008 196.902 257.736 197.009 257.533 197.222C257.336 197.43 257.237 197.732 257.237 198.126V200.59H256.325V194.67H257.237V196.694C257.392 196.508 257.586 196.364 257.821 196.262C258.061 196.161 258.322 196.11 258.605 196.11ZM261.216 198.366C261.216 197.924 261.307 197.532 261.488 197.19C261.675 196.849 261.926 196.585 262.24 196.398C262.56 196.206 262.912 196.11 263.296 196.11C263.643 196.11 263.944 196.18 264.2 196.318C264.462 196.452 264.67 196.62 264.824 196.822V196.182H265.744V200.59H264.824V199.934C264.67 200.142 264.459 200.316 264.192 200.454C263.926 200.593 263.622 200.662 263.28 200.662C262.902 200.662 262.555 200.566 262.24 200.374C261.926 200.177 261.675 199.905 261.488 199.558C261.307 199.206 261.216 198.809 261.216 198.366ZM264.824 198.382C264.824 198.078 264.76 197.814 264.632 197.59C264.51 197.366 264.347 197.196 264.144 197.078C263.942 196.961 263.723 196.902 263.488 196.902C263.254 196.902 263.035 196.961 262.832 197.078C262.63 197.19 262.464 197.358 262.336 197.582C262.214 197.801 262.152 198.062 262.152 198.366C262.152 198.67 262.214 198.937 262.336 199.166C262.464 199.396 262.63 199.572 262.832 199.694C263.04 199.812 263.259 199.87 263.488 199.87C263.723 199.87 263.942 199.812 264.144 199.694C264.347 199.577 264.51 199.406 264.632 199.182C264.76 198.953 264.824 198.686 264.824 198.382ZM267.406 195.598C267.241 195.598 267.102 195.542 266.99 195.43C266.878 195.318 266.822 195.18 266.822 195.014C266.822 194.849 266.878 194.71 266.99 194.598C267.102 194.486 267.241 194.43 267.406 194.43C267.566 194.43 267.702 194.486 267.814 194.598C267.926 194.71 267.982 194.849 267.982 195.014C267.982 195.18 267.926 195.318 267.814 195.43C267.702 195.542 267.566 195.598 267.406 195.598ZM267.854 196.182V200.59H266.942V196.182H267.854ZM270.826 197.798C270.826 197.254 270.951 196.766 271.202 196.334C271.458 195.902 271.802 195.566 272.234 195.326C272.671 195.081 273.148 194.958 273.666 194.958C274.258 194.958 274.783 195.105 275.242 195.398C275.706 195.686 276.042 196.097 276.25 196.63H275.154C275.01 196.337 274.81 196.118 274.554 195.974C274.298 195.83 274.002 195.758 273.666 195.758C273.298 195.758 272.97 195.841 272.682 196.006C272.394 196.172 272.167 196.409 272.002 196.718C271.842 197.028 271.762 197.388 271.762 197.798C271.762 198.209 271.842 198.569 272.002 198.878C272.167 199.188 272.394 199.428 272.682 199.598C272.97 199.764 273.298 199.846 273.666 199.846C274.002 199.846 274.298 199.774 274.554 199.63C274.81 199.486 275.01 199.268 275.154 198.974H276.25C276.042 199.508 275.706 199.918 275.242 200.206C274.783 200.494 274.258 200.638 273.666 200.638C273.143 200.638 272.666 200.518 272.234 200.278C271.802 200.033 271.458 199.694 271.202 199.262C270.951 198.83 270.826 198.342 270.826 197.798ZM279.597 196.11C279.933 196.11 280.232 196.182 280.493 196.326C280.76 196.47 280.968 196.684 281.117 196.966C281.272 197.249 281.349 197.59 281.349 197.99V200.59H280.445V198.126C280.445 197.732 280.346 197.43 280.149 197.222C279.952 197.009 279.682 196.902 279.341 196.902C279 196.902 278.728 197.009 278.525 197.222C278.328 197.43 278.229 197.732 278.229 198.126V200.59H277.317V194.67H278.229V196.694C278.384 196.508 278.578 196.364 278.813 196.262C279.053 196.161 279.314 196.11 279.597 196.11ZM282.976 195.598C282.811 195.598 282.672 195.542 282.56 195.43C282.448 195.318 282.392 195.18 282.392 195.014C282.392 194.849 282.448 194.71 282.56 194.598C282.672 194.486 282.811 194.43 282.976 194.43C283.136 194.43 283.272 194.486 283.384 194.598C283.496 194.71 283.552 194.849 283.552 195.014C283.552 195.18 283.496 195.318 283.384 195.43C283.272 195.542 283.136 195.598 282.976 195.598ZM283.424 196.182V200.59H282.512V196.182H283.424ZM284.318 198.382C284.318 197.929 284.408 197.532 284.59 197.19C284.776 196.844 285.032 196.577 285.358 196.39C285.683 196.204 286.056 196.11 286.478 196.11C287.011 196.11 287.451 196.238 287.798 196.494C288.15 196.745 288.387 197.105 288.51 197.574H287.526C287.446 197.356 287.318 197.185 287.142 197.062C286.966 196.94 286.744 196.878 286.478 196.878C286.104 196.878 285.806 197.012 285.582 197.278C285.363 197.54 285.254 197.908 285.254 198.382C285.254 198.857 285.363 199.228 285.582 199.494C285.806 199.761 286.104 199.894 286.478 199.894C287.006 199.894 287.355 199.662 287.526 199.198H288.51C288.382 199.646 288.142 200.004 287.79 200.27C287.438 200.532 287 200.662 286.478 200.662C286.056 200.662 285.683 200.569 285.358 200.382C285.032 200.19 284.776 199.924 284.59 199.582C284.408 199.236 284.318 198.836 284.318 198.382ZM291.163 198.39L293.195 200.59H291.963L290.331 198.694V200.59H289.419V194.67H290.331V198.11L291.931 196.182H293.195L291.163 198.39ZM297.888 198.278C297.888 198.444 297.878 198.593 297.856 198.726H294.488C294.515 199.078 294.646 199.361 294.88 199.574C295.115 199.788 295.403 199.894 295.744 199.894C296.235 199.894 296.582 199.689 296.784 199.278H297.768C297.635 199.684 297.392 200.017 297.04 200.278C296.694 200.534 296.262 200.662 295.744 200.662C295.323 200.662 294.944 200.569 294.608 200.382C294.278 200.19 294.016 199.924 293.824 199.582C293.638 199.236 293.544 198.836 293.544 198.382C293.544 197.929 293.635 197.532 293.816 197.19C294.003 196.844 294.262 196.577 294.592 196.39C294.928 196.204 295.312 196.11 295.744 196.11C296.16 196.11 296.531 196.201 296.856 196.382C297.182 196.564 297.435 196.82 297.616 197.15C297.798 197.476 297.888 197.852 297.888 198.278ZM296.936 197.99C296.931 197.654 296.811 197.385 296.576 197.182C296.342 196.98 296.051 196.878 295.704 196.878C295.39 196.878 295.12 196.98 294.896 197.182C294.672 197.38 294.539 197.649 294.496 197.99H296.936ZM301.01 196.11C301.357 196.11 301.666 196.182 301.938 196.326C302.215 196.47 302.431 196.684 302.586 196.966C302.741 197.249 302.818 197.59 302.818 197.99V200.59H301.914V198.126C301.914 197.732 301.815 197.43 301.618 197.222C301.421 197.009 301.151 196.902 300.81 196.902C300.469 196.902 300.197 197.009 299.994 197.222C299.797 197.43 299.698 197.732 299.698 198.126V200.59H298.786V196.182H299.698V196.686C299.847 196.505 300.037 196.364 300.266 196.262C300.501 196.161 300.749 196.11 301.01 196.11ZM309.947 196.686C309.947 196.969 309.881 197.236 309.747 197.486C309.614 197.737 309.401 197.942 309.107 198.102C308.814 198.257 308.438 198.334 307.979 198.334H306.971V200.59H306.059V195.03H307.979C308.406 195.03 308.766 195.105 309.059 195.254C309.358 195.398 309.579 195.596 309.723 195.846C309.873 196.097 309.947 196.377 309.947 196.686ZM307.979 197.59C308.326 197.59 308.585 197.513 308.755 197.358C308.926 197.198 309.011 196.974 309.011 196.686C309.011 196.078 308.667 195.774 307.979 195.774H306.971V197.59H307.979ZM311.281 195.598C311.116 195.598 310.977 195.542 310.865 195.43C310.753 195.318 310.697 195.18 310.697 195.014C310.697 194.849 310.753 194.71 310.865 194.598C310.977 194.486 311.116 194.43 311.281 194.43C311.441 194.43 311.577 194.486 311.689 194.598C311.801 194.71 311.857 194.849 311.857 195.014C311.857 195.18 311.801 195.318 311.689 195.43C311.577 195.542 311.441 195.598 311.281 195.598ZM311.729 196.182V200.59H310.817V196.182H311.729ZM313.734 199.846H315.734V200.59H312.678V199.846L314.686 196.926H312.678V196.182H315.734V196.926L313.734 199.846ZM317.5 199.846H319.5V200.59H316.444V199.846L318.452 196.926H316.444V196.182H319.5V196.926L317.5 199.846ZM320.154 198.366C320.154 197.924 320.244 197.532 320.426 197.19C320.612 196.849 320.863 196.585 321.178 196.398C321.498 196.206 321.85 196.11 322.234 196.11C322.58 196.11 322.882 196.18 323.138 196.318C323.399 196.452 323.607 196.62 323.762 196.822V196.182H324.682V200.59H323.762V199.934C323.607 200.142 323.396 200.316 323.13 200.454C322.863 200.593 322.559 200.662 322.218 200.662C321.839 200.662 321.492 200.566 321.178 200.374C320.863 200.177 320.612 199.905 320.426 199.558C320.244 199.206 320.154 198.809 320.154 198.366ZM323.762 198.382C323.762 198.078 323.698 197.814 323.57 197.59C323.447 197.366 323.284 197.196 323.082 197.078C322.879 196.961 322.66 196.902 322.426 196.902C322.191 196.902 321.972 196.961 321.77 197.078C321.567 197.19 321.402 197.358 321.274 197.582C321.151 197.801 321.09 198.062 321.09 198.366C321.09 198.67 321.151 198.937 321.274 199.166C321.402 199.396 321.567 199.572 321.77 199.694C321.978 199.812 322.196 199.87 322.426 199.87C322.66 199.87 322.879 199.812 323.082 199.694C323.284 199.577 323.447 199.406 323.57 199.182C323.698 198.953 323.762 198.686 323.762 198.382Z" fill="black"/>
<path d="M99.8185 52C99.8185 43.7157 106.534 37 114.819 37H123.739C132.023 37 138.739 43.7157 138.739 52V187H99.8185V52Z" fill="url(#paint0_linear_329_104)"/>
<path d="M154.637 82.5904C154.637 74.3061 161.353 67.5904 169.637 67.5904H177.56C185.844 67.5904 192.56 74.3061 192.56 82.5904V186.59H154.637V82.5904Z" fill="url(#paint1_linear_329_104)"/>
<path d="M206.6 128C206.6 119.716 213.316 113 221.6 113H230.521C238.805 113 245.521 119.716 245.521 128V187H206.6V128Z" fill="url(#paint2_linear_329_104)"/>
<path d="M260.49 75C260.49 66.7157 267.206 60 275.49 60H283.413C291.697 60 298.413 66.7157 298.413 75V187H260.49V75Z" fill="url(#paint3_linear_329_104)"/>
<path d="M46.9266 102C46.9266 93.7157 53.6423 87 61.9266 87H69.8491C78.1334 87 84.8491 93.7157 84.8491 102V187H46.9266V102Z" fill="url(#paint4_linear_329_104)"/>
<path d="M55.8004 106.73C56.5684 106.066 57.1724 105.522 57.6124 105.098C58.0604 104.666 58.4324 104.218 58.7284 103.754C59.0244 103.29 59.1724 102.826 59.1724 102.362C59.1724 101.882 59.0564 101.506 58.8244 101.234C58.6004 100.962 58.2444 100.826 57.7564 100.826C57.2844 100.826 56.9164 100.978 56.6524 101.282C56.3964 101.578 56.2604 101.978 56.2444 102.482H54.9244C54.9484 101.57 55.2204 100.874 55.7404 100.394C56.2684 99.9064 56.9364 99.6624 57.7444 99.6624C58.6164 99.6624 59.2964 99.9024 59.7844 100.382C60.2804 100.862 60.5284 101.502 60.5284 102.302C60.5284 102.878 60.3804 103.434 60.0844 103.97C59.7964 104.498 59.4484 104.974 59.0404 105.398C58.6404 105.814 58.1284 106.298 57.5044 106.85L56.9644 107.33H60.7684V108.47H54.9364V107.474L55.8004 106.73ZM63.6501 106.946L62.1981 110.258H61.3101L62.1621 106.946H63.6501ZM64.4975 106.766V105.734L68.5295 99.9504H70.1855V105.578H71.3015V106.766H70.1855V108.59H68.8415V106.766H64.4975ZM68.9015 101.342L66.0695 105.578H68.9015V101.342ZM77.211 108.59L73.983 104.858V108.59H72.615V100.25H73.983V104.054L77.223 100.25H78.939L75.315 104.426L78.999 108.59H77.211Z" fill="black"/>
<path d="M110.598 53.0024C110.646 52.2584 110.93 51.6784 111.45 51.2624C111.978 50.8464 112.65 50.6384 113.466 50.6384C114.026 50.6384 114.51 50.7384 114.918 50.9384C115.326 51.1384 115.634 51.4104 115.842 51.7544C116.05 52.0984 116.154 52.4864 116.154 52.9184C116.154 53.4144 116.022 53.8384 115.758 54.1904C115.494 54.5424 115.178 54.7784 114.81 54.8984V54.9464C115.282 55.0904 115.65 55.3544 115.914 55.7384C116.178 56.1144 116.31 56.5984 116.31 57.1904C116.31 57.6624 116.202 58.0824 115.986 58.4504C115.77 58.8184 115.45 59.1104 115.026 59.3264C114.602 59.5344 114.094 59.6384 113.502 59.6384C112.638 59.6384 111.926 59.4184 111.366 58.9784C110.814 58.5304 110.518 57.8904 110.478 57.0584H111.798C111.83 57.4824 111.994 57.8304 112.29 58.1024C112.586 58.3664 112.986 58.4984 113.49 58.4984C113.978 58.4984 114.354 58.3664 114.618 58.1024C114.882 57.8304 115.014 57.4824 115.014 57.0584C115.014 56.4984 114.834 56.1024 114.474 55.8704C114.122 55.6304 113.578 55.5104 112.842 55.5104H112.53V54.3824H112.854C113.502 54.3744 113.994 54.2664 114.33 54.0584C114.674 53.8504 114.846 53.5224 114.846 53.0744C114.846 52.6904 114.722 52.3864 114.474 52.1624C114.226 51.9304 113.874 51.8144 113.418 51.8144C112.97 51.8144 112.622 51.9304 112.374 52.1624C112.126 52.3864 111.978 52.6664 111.93 53.0024H110.598ZM119.427 57.9464L117.975 61.2584H117.087L117.939 57.9464H119.427ZM120.262 52.0904V50.8424H122.758V59.5904H121.378V52.0904H120.262ZM129.413 59.5904L126.185 55.8584V59.5904H124.817V51.2504H126.185V55.0544L129.425 51.2504H131.141L127.517 55.4264L131.201 59.5904H129.413Z" fill="black"/>
<path d="M162.617 88.7304C163.385 88.0664 163.989 87.5224 164.429 87.0984C164.877 86.6664 165.249 86.2184 165.545 85.7544C165.841 85.2904 165.989 84.8264 165.989 84.3624C165.989 83.8824 165.873 83.5064 165.641 83.2344C165.417 82.9624 165.061 82.8264 164.573 82.8264C164.101 82.8264 163.733 82.9784 163.469 83.2824C163.213 83.5784 163.077 83.9784 163.061 84.4824H161.741C161.765 83.5704 162.037 82.8744 162.557 82.3944C163.085 81.9064 163.753 81.6624 164.561 81.6624C165.433 81.6624 166.113 81.9024 166.601 82.3824C167.097 82.8624 167.345 83.5024 167.345 84.3024C167.345 84.8784 167.197 85.4344 166.901 85.9704C166.613 86.4984 166.265 86.9744 165.857 87.3984C165.457 87.8144 164.945 88.2984 164.321 88.8504L163.781 89.3304H167.585V90.4704H161.753V89.4744L162.617 88.7304ZM170.467 88.9464L169.015 92.2584H168.127L168.979 88.9464H170.467ZM176.186 83.8704C176.098 83.5024 175.938 83.2264 175.706 83.0424C175.474 82.8584 175.15 82.7664 174.734 82.7664C174.102 82.7664 173.63 83.0104 173.318 83.4984C173.006 83.9784 172.842 84.7784 172.826 85.8984C173.034 85.5464 173.338 85.2744 173.738 85.0824C174.138 84.8904 174.57 84.7944 175.034 84.7944C175.562 84.7944 176.026 84.9104 176.426 85.1424C176.834 85.3664 177.15 85.6944 177.374 86.1264C177.606 86.5584 177.722 87.0744 177.722 87.6744C177.722 88.2344 177.61 88.7344 177.386 89.1744C177.17 89.6144 176.846 89.9624 176.414 90.2184C175.982 90.4664 175.462 90.5904 174.854 90.5904C174.03 90.5904 173.382 90.4104 172.91 90.0504C172.446 89.6824 172.118 89.1664 171.926 88.5024C171.742 87.8384 171.65 87.0104 171.65 86.0184C171.65 83.0904 172.682 81.6264 174.746 81.6264C175.546 81.6264 176.174 81.8424 176.63 82.2744C177.094 82.7064 177.366 83.2384 177.446 83.8704H176.186ZM174.734 85.9464C174.246 85.9464 173.83 86.0944 173.486 86.3904C173.15 86.6784 172.982 87.0984 172.982 87.6504C172.982 88.2024 173.138 88.6424 173.45 88.9704C173.77 89.2904 174.214 89.4504 174.782 89.4504C175.286 89.4504 175.682 89.2944 175.97 88.9824C176.266 88.6704 176.414 88.2544 176.414 87.7344C176.414 87.1904 176.27 86.7584 175.982 86.4384C175.702 86.1104 175.286 85.9464 174.734 85.9464ZM183.958 90.5904L180.73 86.8584V90.5904H179.362V82.2504H180.73V86.0544L183.97 82.2504H185.686L182.062 86.4264L185.746 90.5904H183.958Z" fill="black"/>
<path d="M217.958 128.09V126.842H220.454V135.59H219.074V128.09H217.958ZM224.013 133.946L222.561 137.258H221.673L222.525 133.946H224.013ZM226.504 131.018C225.672 130.602 225.256 129.946 225.256 129.05C225.256 128.618 225.364 128.222 225.58 127.862C225.796 127.502 226.12 127.218 226.552 127.01C226.984 126.794 227.512 126.686 228.136 126.686C228.752 126.686 229.276 126.794 229.708 127.01C230.148 127.218 230.476 127.502 230.692 127.862C230.908 128.222 231.016 128.618 231.016 129.05C231.016 129.498 230.9 129.894 230.668 130.238C230.444 130.574 230.144 130.834 229.768 131.018C230.224 131.186 230.584 131.462 230.848 131.846C231.112 132.222 231.244 132.666 231.244 133.178C231.244 133.698 231.112 134.158 230.848 134.558C230.584 134.958 230.216 135.266 229.744 135.482C229.272 135.698 228.736 135.806 228.136 135.806C227.536 135.806 227 135.698 226.528 135.482C226.064 135.266 225.7 134.958 225.436 134.558C225.172 134.158 225.04 133.698 225.04 133.178C225.04 132.658 225.172 132.21 225.436 131.834C225.7 131.458 226.056 131.186 226.504 131.018ZM229.708 129.218C229.708 128.77 229.568 128.426 229.288 128.186C229.008 127.946 228.624 127.826 228.136 127.826C227.656 127.826 227.276 127.946 226.996 128.186C226.716 128.426 226.576 128.774 226.576 129.23C226.576 129.63 226.72 129.958 227.008 130.214C227.304 130.462 227.68 130.586 228.136 130.586C228.592 130.586 228.968 130.458 229.264 130.202C229.56 129.946 229.708 129.618 229.708 129.218ZM228.136 131.618C227.608 131.618 227.176 131.75 226.84 132.014C226.512 132.27 226.348 132.642 226.348 133.13C226.348 133.586 226.508 133.958 226.828 134.246C227.148 134.526 227.584 134.666 228.136 134.666C228.68 134.666 229.108 134.522 229.42 134.234C229.74 133.946 229.9 133.578 229.9 133.13C229.9 132.65 229.736 132.278 229.408 132.014C229.088 131.75 228.664 131.618 228.136 131.618ZM237.457 135.59L234.229 131.858V135.59H232.861V127.25H234.229V131.054L237.469 127.25H239.185L235.561 131.426L239.245 135.59H237.457Z" fill="black"/>
<path d="M269.891 80.7304C270.659 80.0664 271.263 79.5224 271.703 79.0984C272.151 78.6664 272.523 78.2184 272.819 77.7544C273.115 77.2904 273.263 76.8264 273.263 76.3624C273.263 75.8824 273.147 75.5064 272.915 75.2344C272.691 74.9624 272.335 74.8264 271.847 74.8264C271.375 74.8264 271.007 74.9784 270.743 75.2824C270.487 75.5784 270.351 75.9784 270.335 76.4824H269.015C269.039 75.5704 269.311 74.8744 269.831 74.3944C270.359 73.9064 271.027 73.6624 271.835 73.6624C272.707 73.6624 273.387 73.9024 273.875 74.3824C274.371 74.8624 274.619 75.5024 274.619 76.3024C274.619 76.8784 274.471 77.4344 274.175 77.9704C273.887 78.4984 273.539 78.9744 273.131 79.3984C272.731 79.8144 272.219 80.2984 271.595 80.8504L271.055 81.3304H274.859V82.4704H269.027V81.4744L269.891 80.7304ZM277.741 80.9464L276.289 84.2584H275.401L276.253 80.9464H277.741ZM284.301 74.8984L280.965 82.5904H279.585L282.957 75.0424H278.517V73.8784H284.301V74.8984ZM290.247 82.5904L287.019 78.8584V82.5904H285.651V74.2504H287.019V78.0544L290.259 74.2504H291.975L288.351 78.4264L292.035 82.5904H290.247Z" fill="black"/>
<line x1="40.9408" x2="40.9408" y2="188" stroke="black" stroke-width="2"/>
<defs>
<linearGradient id="paint0_linear_329_104" x1="119.279" y1="37" x2="119.279" y2="187" gradientUnits="userSpaceOnUse">
<stop stop-color="#FF0000"/>
<stop offset="1" stop-color="#990000"/>
</linearGradient>
<linearGradient id="paint1_linear_329_104" x1="173.598" y1="67.5904" x2="173.598" y2="186.59" gradientUnits="userSpaceOnUse">
<stop stop-color="#FF0000"/>
<stop offset="1" stop-color="#990000"/>
</linearGradient>
<linearGradient id="paint2_linear_329_104" x1="226.061" y1="113" x2="226.061" y2="187" gradientUnits="userSpaceOnUse">
<stop stop-color="#FF0000"/>
<stop offset="1" stop-color="#990000"/>
</linearGradient>
<linearGradient id="paint3_linear_329_104" x1="279.451" y1="60" x2="279.451" y2="187" gradientUnits="userSpaceOnUse">
<stop stop-color="#FF0000"/>
<stop offset="1" stop-color="#990000"/>
</linearGradient>
<linearGradient id="paint4_linear_329_104" x1="65.8878" y1="87" x2="65.8878" y2="187" gradientUnits="userSpaceOnUse">
<stop stop-color="#FF0000"/>
<stop offset="1" stop-color="#990000"/>
</linearGradient>
</defs>
</svg>
