<?xml version="1.0" encoding="UTF-8"?>
<svg version="1.1" xmlns="http://www.w3.org/2000/svg" width="500" height="500">
<path d="M0 0 C165 0 330 0 500 0 C500 165 500 330 500 500 C335 500 170 500 0 500 C0 335 0 170 0 0 Z " fill="#FCD857" transform="translate(0,0)"/>
<path d="M0 0 C165 0 330 0 500 0 C500 165 500 330 500 500 C335 500 170 500 0 500 C0 335 0 170 0 0 Z M193 42 C191.81639893 42.35553955 191.81639893 42.35553955 190.60888672 42.71826172 C151.60628919 54.61394195 114.29973103 76.33650803 88 108 C87.2059375 108.88300781 86.411875 109.76601562 85.59375 110.67578125 C48.54591649 152.20005815 32.45935315 208.16796059 35 263 C38.34010222 312.41741592 57.48318683 358.44127173 91.08203125 394.89453125 C92.65097265 396.61685185 94.11958759 398.36108928 95.5625 400.1875 C98.05029904 403.05803735 100.64284303 405.4516873 103.53515625 407.90234375 C105.38302694 409.47493735 107.19450619 411.06743203 108.99609375 412.69140625 C138.37393827 438.90996842 176.22537119 456.49942289 215 463 C215.67401855 463.11714355 216.34803711 463.23428711 217.04248047 463.35498047 C240.35818153 467.21511991 265.85199366 466.21238946 289 462 C290.14791016 461.79793945 291.29582031 461.59587891 292.47851562 461.38769531 C301.35111516 459.73468646 309.74331194 457.3739189 318.25 454.375 C318.87452057 454.1565744 319.49904114 453.9381488 320.14248657 453.71310425 C348.60815168 443.72265281 372.24443162 428.61995856 395 409 C395.77601563 408.34902344 396.55203125 407.69804687 397.3515625 407.02734375 C401.34982121 403.63885808 404.86011078 400.06639351 408.2421875 396.0625 C409.38351053 394.72334765 410.55439728 393.4086429 411.7578125 392.125 C438.78937658 363.17068869 457.20710576 323.06936939 463 284 C463.20238281 282.73027344 463.40476562 281.46054687 463.61328125 280.15234375 C469.21932463 241.17303968 463.37983524 201.07013312 448 165 C447.65598145 164.19224121 447.31196289 163.38448242 446.95751953 162.55224609 C437.61709861 141.01049211 424.61517379 121.82320525 408.54296875 104.75390625 C406.75708614 102.81988591 405.07118467 100.89685912 403.41015625 98.86328125 C401.444736 96.52834925 399.57237313 94.58016028 397.25 92.625 C395.1565823 90.84888406 393.08368665 89.07857341 391.08203125 87.19921875 C362.58241469 60.57385163 323.05701345 43.05732755 284.76513672 37.40991211 C282.78442409 37.11628537 280.80712126 36.7992867 278.83251953 36.46704102 C269.54576084 34.97880386 260.50266461 34.64183601 251.125 34.6875 C250.36464447 34.68899048 249.60428894 34.69048096 248.82089233 34.6920166 C229.85562093 34.75847875 211.21047015 36.4573131 193 42 Z " fill="#0A0A0B" transform="translate(0,0)"/>
<path d="M0 0 C0.7317041 0.1129541 1.4634082 0.2259082 2.21728516 0.34228516 C32.16690322 5.02367555 61.35686084 17.4347956 86 35 C86.58426758 35.41604492 87.16853516 35.83208984 87.77050781 36.26074219 C96.44910068 42.52502702 104.28662835 49.60230885 112 57 C112.94875 57.89589844 113.8975 58.79179688 114.875 59.71484375 C122.00332071 66.61027898 128.15072928 74.01606923 134 82 C134.41604492 82.56638184 134.83208984 83.13276367 135.26074219 83.71630859 C148.25476766 101.67197027 160.95208828 124.00225753 165 146 C153.60658248 148.07537527 142.24434139 150.10241656 130.72729492 151.35107422 C125.78631168 151.88934948 120.91739574 152.64188129 116.0234375 153.5 C112.52396991 154.07872332 109.0174379 154.5433752 105.5 155 C101.00228168 155.58447507 96.5310321 156.22391844 92.0625 157 C84.74241563 158.26173821 77.37378274 159.12038632 70 160 C69.18208984 158.36804688 69.18208984 158.36804688 68.34765625 156.703125 C53.87750786 128.29178856 32.24500871 107.95456699 1.84155273 97.83911133 C-25.79256463 88.96467272 -55.31530525 91.12259257 -81.24365234 104.09716797 C-105.4860293 116.55870675 -122.71824003 135.37274348 -134 160 C-141.34722277 159.61746955 -148.5275422 158.83093289 -155.78125 157.640625 C-157.46843873 157.36896751 -159.15569667 157.09773957 -160.84301758 156.8269043 C-161.69916656 156.68900482 -162.55531555 156.55110535 -163.43740845 156.4090271 C-167.46970788 155.76541312 -171.50613881 155.14960473 -175.54296875 154.53515625 C-177.13664497 154.29187924 -178.73031354 154.04855208 -180.32397461 153.80517578 C-181.1197995 153.68370178 -181.91562439 153.56222778 -182.73556519 153.43707275 C-198.17826234 151.07795066 -213.60175017 148.63615556 -229 146 C-227.25939268 139.16349379 -225.28114642 132.61006295 -222.5 126.125 C-221.98614746 124.92351318 -221.98614746 124.92351318 -221.46191406 123.69775391 C-198.5769925 71.26918914 -157.13087282 31.63872465 -104.02734375 10.37890625 C-71.36561297 -2.11022434 -34.49618329 -5.91768545 0 0 Z " fill="#C72127" transform="translate(282,47)"/>
<path d="M0 0 C0.53367187 1.07636719 1.06734375 2.15273438 1.6171875 3.26171875 C15.35514601 30.42207203 37.37277465 52.33828119 66.8203125 62.125 C80.58719167 65.91342867 93.73336655 67.83103535 108 67 C108.72364746 66.96664551 109.44729492 66.93329102 110.19287109 66.89892578 C139.58003251 65.37495324 166.01386598 51.07800821 185.640625 29.57080078 C193.06740161 20.98892566 198.55243265 10.90061968 204 1 C211.97872901 0.61546744 219.68680427 2.05884562 227.53125 3.3359375 C229.05080505 3.57838565 230.57046048 3.82020545 232.09020996 4.06143188 C236.08301023 4.69655604 240.07466486 5.33859266 244.06604004 5.98260498 C250.42315281 7.00747779 256.78174145 8.02309518 263.14073181 9.03624344 C265.33421014 9.38692031 267.52705757 9.74133768 269.71984863 10.09628296 C279.12398042 11.60776314 288.54164612 12.87782745 298 14 C297.18383761 19.97204598 295.77645143 25.02252401 293.625 30.625 C293.27630859 31.53435303 292.92761719 32.44370605 292.56835938 33.38061523 C286.7691513 48.05639376 279.33541683 62.25670285 270 75 C269.24332031 76.04027344 268.48664063 77.08054687 267.70703125 78.15234375 C261.67924524 86.28245061 254.99957793 93.70173019 248 101 C247.10410156 101.94875 246.20820313 102.8975 245.28515625 103.875 C210.02736169 140.32358645 158.92522733 160.30296875 108.7421875 162.1953125 C91.13421003 162.43651767 73.11992584 161.22034613 56 157 C55.29278809 156.83661133 54.58557617 156.67322266 53.85693359 156.50488281 C25.9774659 150.05235147 -0.40305293 137.58073683 -23 120 C-23.56299805 119.56397461 -24.12599609 119.12794922 -24.70605469 118.67871094 C-40.57759841 106.21160859 -54.41682912 91.497616 -66 75 C-66.4115332 74.41718262 -66.82306641 73.83436523 -67.24707031 73.23388672 C-78.25673556 57.42879824 -94 33.72617661 -94 14 C-90.21876087 13.40227499 -86.43750796 12.80463717 -82.65625 12.20703125 C-81.47621399 12.02053009 -80.29617798 11.83402893 -79.0803833 11.64187622 C-72.59572856 10.61716515 -66.11095668 9.59320669 -59.62597656 8.57055664 C-58.33077087 8.36630569 -57.03556519 8.16205475 -55.70111084 7.95161438 C-53.09942993 7.54134337 -50.49774536 7.13109555 -47.89605713 6.72087097 C-41.48744618 5.70988648 -35.07934765 4.69588518 -28.67260742 3.67311096 C-25.69196218 3.19753116 -22.71090184 2.72459505 -19.72973633 2.25228882 C-17.79530964 1.94470448 -15.86151299 1.63316602 -13.92773438 1.3215332 C-12.79142578 1.14195068 -11.65511719 0.96236816 -10.484375 0.77734375 C-9.05689941 0.54905884 -9.05689941 0.54905884 -7.60058594 0.31616211 C-5.03829275 0.00465538 -2.57826389 -0.05806638 0 0 Z " fill="#C72126" transform="translate(148,293)"/>
<path d="M0 0 C22.18422639 18.33062838 34.82591528 42.5970415 37.5625 71.125 C37.70081805 73.14496546 37.82576576 75.1658898 37.9375 77.1875 C38.00324219 78.16976562 38.06898438 79.15203125 38.13671875 80.1640625 C39.11732615 106.87716076 26.22485099 130.78491805 9.07421875 150.30859375 C-2.94080897 163.09546479 -20.04971452 172.876828 -37.0625 177.1875 C-38.073125 177.46335937 -39.08375 177.73921875 -40.125 178.0234375 C-66.14791947 184.24382834 -92.03550388 179.31451534 -115.0625 166.1875 C-118.9638608 163.75554326 -122.54376624 161.14255311 -126.0625 158.1875 C-127.35027344 157.10662109 -127.35027344 157.10662109 -128.6640625 156.00390625 C-148.78581712 138.46576061 -162.00440271 114.19578249 -164.29736328 87.44775391 C-166.02773741 59.46774887 -157.22737476 32.64603187 -138.61181641 11.54296875 C-102.20472269 -28.22131217 -42.44801722 -32.892338 0 0 Z " fill="#EF5E07" transform="translate(313.0625,170.8125)"/>
<path d="M0 0 C4.28980068 1.6566738 7.15986146 4.88644916 10.32910156 8.08618164 C10.95391418 8.70909592 11.57872681 9.33201019 12.22247314 9.97380066 C14.28344013 12.03106701 16.33712604 14.09543759 18.390625 16.16015625 C19.81943919 17.59016244 21.24862312 19.01979929 22.67816162 20.44908142 C25.67038605 23.44286933 28.65922151 26.43998629 31.64550781 29.43969727 C35.4830276 33.29424505 39.32713599 37.14213863 43.17355728 40.98780155 C46.12310794 43.93762338 49.07005095 46.89003838 52.01610565 49.84335136 C53.43336328 51.26380141 54.85123645 52.68363756 56.26972198 54.1028614 C58.2451764 56.08047116 60.21731007 58.06133039 62.18847656 60.04321289 C62.78063965 60.63492279 63.37280273 61.22663269 63.98291016 61.83627319 C68 65.88552375 68 65.88552375 68 67 C60.41 67 52.82 67 45 67 C44.01 65.02 43.02 63.04 42 61 C38.33781672 58.0306622 35.64751191 57.60446707 31 58 C30.2575 58.061875 29.515 58.12375 28.75 58.1875 C26.80209448 58.89426151 26.80209448 58.89426151 25.75 61.0625 C24.74109291 65.01405276 24.61023689 67.90748733 25 72 C26.87015094 74.43119623 28.28138345 75.64069173 31 77 C34.37357334 77.50070321 34.37357334 77.50070321 38 77 C38.64710938 76.17371094 39.29421875 75.34742188 39.9609375 74.49609375 C44.68917275 70.61262033 49.39799793 71.46281114 55.3125 71.6875 C56.43462891 71.71005859 57.55675781 71.73261719 58.71289062 71.75585938 C61.47662536 71.81466224 64.23762554 71.89679599 67 72 C62.20172261 77.76754545 57.10917556 83.20519156 51.84985352 88.55517578 C50.90023044 89.52663116 49.95693868 90.50431216 49.01977539 91.48779297 C47.65155115 92.92266152 46.26159235 94.33670634 44.87109375 95.75 C44.05568115 96.59046875 43.24026855 97.4309375 42.40014648 98.296875 C40 100 40 100 37.32446289 99.77832031 C36.55739014 99.52147461 35.79031738 99.26462891 35 99 C31.03419682 98.60942847 27.89285932 98.62301496 24.1875 100.1875 C21.12005187 102.72909988 19.34704212 104.91351508 18.6796875 108.92578125 C18.46451472 112.73433953 18.73430709 114.57855607 20.8125 117.875 C23.97834802 120.95039522 26.00037075 122.29010429 30.375 122.3125 C34.38246145 122.20841009 36.86848364 121.67099925 40 119 C43.18227193 115.04959346 43.36945059 111.98758297 43 107 C42.67 106.01 42.34 105.02 42 104 C45.96615417 100.00920662 49.93552111 96.02164801 53.90795898 92.03710938 C55.26009477 90.67993134 56.61133353 89.321859 57.96166992 87.96289062 C59.89789891 86.01459127 61.83728546 84.06948531 63.77734375 82.125 C64.38464828 81.51253418 64.99195282 80.90006836 65.61766052 80.26904297 C67.05958408 78.82692511 68.52716559 77.41053404 70 76 C70.33 76 70.66 76 71 76 C71 107.02 71 138.04 71 170 C49.23407464 170 27.72266846 162.04379438 11 148 C9.71222656 146.91912109 9.71222656 146.91912109 8.3984375 145.81640625 C-11.72331712 128.27826061 -24.94190271 104.00828249 -27.23486328 77.26025391 C-28.94757978 49.56577132 -20.3409571 24.53534022 -3 3 C-2.02372264 1.97682723 -1.03608839 0.96255953 0 0 Z " fill="#F6931D" transform="translate(176,181)"/>
<path d="M0 0 C6.66584006 28.04096717 10.86049648 67.6110042 -1 95 C-12.49479323 93.68613635 -23.9469413 92.31085301 -35.3125 90.125 C-46.69248268 87.94098453 -58.14398584 86.34332249 -69.6184082 84.75048828 C-71.06073262 84.54996994 -72.50303455 84.34928976 -73.9453125 84.1484375 C-74.63648666 84.052211 -75.32766083 83.9559845 -76.03977966 83.85684204 C-82.04526173 83.01180046 -88.02565358 82.04095197 -94 81 C-93.45183017 77.6690187 -92.88533551 74.34590026 -92.24609375 71.03125 C-89.0174985 53.38578044 -88.74577773 36.45774113 -93 19 C-93.34239809 17.00153192 -93.67700544 15.00169569 -94 13 C-92.45058716 12.78851318 -92.45058716 12.78851318 -90.86987305 12.57275391 C-86.98737463 12.04215387 -83.10532272 11.50834485 -79.22338867 10.97363281 C-77.55260784 10.74393463 -75.88171176 10.51507285 -74.21069336 10.28710938 C-65.87169728 9.14895247 -57.56267974 7.98804845 -49.29223633 6.41552734 C-45.87326724 5.79575044 -42.45223043 5.39615759 -39 5 C-34.47171373 4.46325111 -29.97936611 3.86349226 -25.5 3 C-20.87224897 2.1124861 -16.2358605 1.46337273 -11.5625 0.875 C-10.87542969 0.78734375 -10.18835938 0.6996875 -9.48046875 0.609375 C-6.27923396 0.21712884 -3.23305274 0 0 0 Z " fill="#C72227" transform="translate(450,203)"/>
<path d="M0 0 C7.7940328 0.61606559 15.48520203 1.58725557 23.2109375 2.77734375 C24.3409317 2.94875381 25.4709259 3.12016388 26.63516235 3.29676819 C30.21558118 3.84062321 33.7952919 4.38898854 37.375 4.9375 C39.76818395 5.3017295 42.16141278 5.66566424 44.5546875 6.02929688 C51.03711884 7.01524339 57.51878399 8.00609896 64 9 C65.15249741 9.17615845 66.30499481 9.35231689 67.49241638 9.53381348 C69.21283897 9.79732605 69.21283897 9.79732605 70.96801758 10.06616211 C72.00412674 10.22467148 73.0402359 10.38318085 74.10774231 10.54649353 C78.18583066 11.18593844 82.25000734 11.89382593 86.3125 12.625 C87.06466797 12.7590625 87.81683594 12.893125 88.59179688 13.03125 C90.39477546 13.35280032 92.19742687 13.67618447 94 14 C93.71125 15.258125 93.4225 16.51625 93.125 17.8125 C91.07280526 27.16502097 89.63645157 36.02082693 89.6875 45.625 C89.68951416 46.66245361 89.69152832 47.69990723 89.69360352 48.76879883 C89.80949114 57.76431544 91.03697709 66.24268019 93 75 C93.33633444 76.66606363 93.67022297 78.33262602 94 80 C79.79524015 82.79803447 65.56095632 85.28856469 51.26196289 87.55493164 C48.06782542 88.06165517 44.87470086 88.57442756 41.68164062 89.08789062 C28.14527661 91.25241475 14.59083725 93.20988848 1 95 C-10.76945301 67.82124744 -7.42871121 27.87381642 0 0 Z " fill="#C72126" transform="translate(50,203)"/>
<path d="M0 0 C31.02 0 62.04 0 94 0 C94 26.95121276 81.48832344 50.71906478 63.3125 70.0625 C45.55698874 87.15392718 20.66903865 98 -4 98 C-4 67.31 -4 36.62 -4 5 C2.03239985 8.01619992 8.49634787 13.02518187 10.953125 19.51953125 C11.22456917 21.03509451 11.45945752 22.55789937 11.6484375 24.0859375 C12.17857893 26.97226306 13.71405526 28.28554145 16 30 C19.20173254 31.60086627 22.52577059 31.49917089 26 31 C28.8100346 29.20636089 30.50940468 27.98119065 32 25 C32.55512815 20.36786507 32.6364242 17.01827873 30.125 13 C26.85530704 9.92264192 24.71751988 9.84714645 20.265625 9.671875 C17.146065 10.12367335 14.75001982 11.5071321 12 13 C9.99698146 11.0238076 7.99750133 9.04425526 6 7.0625 C5.42765625 6.49853516 4.8553125 5.93457031 4.265625 5.35351562 C2.82474495 3.92121224 1.41012857 2.46258871 0 1 C0 0.67 0 0.34 0 0 Z " fill="#F6931D" transform="translate(257,253)"/>
<path d="M0 0 C6.71550373 0 11.64853483 0.52173703 18 2.0625 C19.37442261 2.39423218 19.37442261 2.39423218 20.77661133 2.73266602 C45.80664249 9.0909169 68.03988239 24.0740901 82 46 C92.23130461 63.28365834 97 78.74154683 97 99 C65.98 99 34.96 99 3 99 C8.08448627 93.06809935 13.22366992 87.32242326 18.625 81.6875 C19.45128906 80.78193359 20.27757812 79.87636719 21.12890625 78.94335938 C26.60601278 73.28480786 30.50513632 70.8985663 38.43457031 70.33496094 C41.31497279 70.17968387 41.31497279 70.17968387 44.125 67.5625 C48.65414617 61.3726669 49.04214291 56.59667333 48 49 C45.9467851 44.75904923 43.24219682 42.60788355 39.0625 40.5625 C32.86391183 39.4239838 28.33994399 39.40134209 23 43 C19.21955887 46.58147054 17.67298229 49.84158009 17.5 55.0625 C17.77594374 60.25024239 19.17965699 63.97739665 22.6875 67.875 C23.3371875 68.431875 23.3371875 68.431875 24 69 C22.43809102 72.75205367 20.10972261 75.1343812 17.24609375 77.984375 C16.78517838 78.44483215 16.324263 78.90528931 15.84938049 79.37969971 C14.87924882 80.34682183 13.90669939 81.31152404 12.93188477 82.27392578 C11.43377195 83.75368237 9.9439157 85.24138602 8.45507812 86.73046875 C1.14017532 94 1.14017532 94 0 94 C0 62.98 0 31.96 0 0 Z " fill="#F6931D" transform="translate(253,149)"/>
<path d="M0 0 C0 31.02 0 62.04 0 94 C-4.59153924 90.06439493 -8.96803152 86.17446399 -13.21069336 81.90283203 C-13.78717621 81.32649521 -14.36365906 80.75015839 -14.95761108 80.15635681 C-16.83740595 78.27587265 -18.71364693 76.39188591 -20.58984375 74.5078125 C-21.90241431 73.19337426 -23.21520776 71.87915856 -24.5282135 70.56515503 C-27.96463602 67.12493488 -31.39804337 63.68172107 -34.83081055 60.237854 C-38.34175501 56.71663589 -41.8555717 53.19828651 -45.36914062 49.6796875 C-52.24889212 42.78924732 -59.12545855 35.89563795 -66 29 C-61.86765239 19.90716946 -49.62302929 14.18899528 -41 10 C-39.43185547 9.22849609 -39.43185547 9.22849609 -37.83203125 8.44140625 C-31.22524115 5.39270334 -24.76826197 3.23636726 -17.6875 1.625 C-16.95909912 1.45726074 -16.23069824 1.28952148 -15.48022461 1.11669922 C-10.05672752 -0.02192196 -5.74909889 0 0 0 Z " fill="#F6931D" transform="translate(247,149)"/>
<path d="M0 0 C5.82988721 3.30854656 7.73818209 7.78653115 9.5 14.0625 C11.02035821 20.77880769 12.26593001 27.81256447 9.5 34.3125 C5.48510466 39.04434094 2.44284716 41.85756566 -3.8984375 42.74609375 C-9.3547633 42.87898421 -13.54058027 42.74164972 -17.8203125 39.1171875 C-23.66107971 31.99974986 -25.81441251 20.48267383 -25.5625 11.4453125 C-24.82228139 6.5413642 -21.98950771 3.93340378 -18.1875 1.0625 C-12.17577261 -2.39104552 -6.30086272 -2.83833255 0 0 Z " fill="#FDF8F9" transform="translate(292.25,383.625)"/>
<path d="M0 0 C3.3 0 6.6 0 10 0 C12.31 4.62 14.62 9.24 17 14 C21.26864461 9.77105282 21.26864461 9.77105282 24.8125 5.1875 C25.8953125 3.6096875 25.8953125 3.6096875 27 2 C30.3 2.33 33.6 2.66 37 3 C36.55717835 12.64885065 35.95422751 22.26191023 35 31.875 C34.9170166 32.72416992 34.8340332 33.57333984 34.74853516 34.44824219 C34.37299394 38.10331332 33.89619459 41.41522165 33 45 C29.7 45 26.4 45 23 45 C23.33 37.08 23.66 29.16 24 21 C22.35 23.31 20.7 25.62 19 28 C16.5 28.9375 16.5 28.9375 14 28 C12.35 25.36 10.7 22.72 9 20 C8.01 27.59 7.02 35.18 6 43 C3.03 43 0.06 43 -3 43 C-4 42 -4 42 -4.15234375 38.36328125 C-4.07605597 31.60311344 -3.28408531 24.90327774 -2.5625 18.1875 C-2.42779297 16.87845703 -2.29308594 15.56941406 -2.15429688 14.22070312 C-1.13502385 4.54009539 -1.13502385 4.54009539 0 0 Z " fill="#FDF8F8" transform="translate(248,68)"/>
<path d="M0 0 C7.68134055 3.40791869 16.75720798 10.61376288 21 18 C21.75401616 22.2224905 21.22525173 25.0032106 19.3125 28.75 C16.95302504 32.06601886 15.7615233 33.54668418 12 35 C9.36 35 6.72 35 4 35 C3.01 40.61 2.02 46.22 1 52 C-3 52 -3 52 -5.75 50.375 C-8 48 -8 48 -8.5 45.375 C-7.92944218 41.52373469 -6.84432226 38.0357995 -5.55859375 34.3671875 C-4.95626458 31.81465968 -5.14838173 30.44769754 -6 28 C-9.67056937 29.47797262 -11.41085783 31.47615477 -13.75 34.625 C-14.36359375 35.44226563 -14.9771875 36.25953125 -15.609375 37.1015625 C-16.06828125 37.72804688 -16.5271875 38.35453125 -17 39 C-20.86142204 38.21616433 -23.01328244 36.57189568 -26 34 C-24.70234874 31.21545667 -23.27315368 28.92758387 -21.3125 26.56640625 C-20.78301758 25.92324463 -20.25353516 25.28008301 -19.70800781 24.61743164 C-19.14436523 23.9393042 -18.58072266 23.26117676 -18 22.5625 C-13.21979234 16.75290442 -8.53920262 10.88655784 -3.984375 4.89868164 C-1.07627812 1.07627812 -1.07627812 1.07627812 0 0 Z " fill="#FDF8F8" transform="translate(154,348)"/>
<path d="M0 0 C0.68775513 1.20946289 0.68775513 1.20946289 1.3894043 2.44335938 C3.11202198 5.4708192 4.83615493 8.49740586 6.5612793 11.5234375 C7.30373834 12.8264829 8.04561407 14.12986086 8.78686523 15.43359375 C9.86023499 17.32121905 10.93546024 19.20777042 12.01171875 21.09375 C12.35886932 21.70299316 12.7060199 22.31223633 13.06369019 22.93994141 C14.96535873 26.25880512 16.93728395 29.51054676 19.01953125 32.71875 C21 36 21 36 21 39 C15.555 39.495 15.555 39.495 10 40 C9.34 38.68 8.68 37.36 8 36 C7.32453125 36.144375 6.6490625 36.28875 5.953125 36.4375 C5.06109375 36.623125 4.1690625 36.80875 3.25 37 C1.92742187 37.2784375 1.92742187 37.2784375 0.578125 37.5625 C-2 38 -2 38 -6 38 C-5.938125 38.94875 -5.87625 39.8975 -5.8125 40.875 C-5.874375 41.90625 -5.93625 42.9375 -6 44 C-8.90092502 45.93395001 -9.89674737 46.30131941 -13.1875 46.625 C-14.445625 46.74875 -15.70375 46.8725 -17 47 C-17.22320204 37.71851502 -16.35929638 28.60426601 -15.5 19.375 C-15.35505853 17.78258937 -15.21052405 16.19014164 -15.06640625 14.59765625 C-14.71562701 10.73132724 -14.35934819 6.86554161 -14 3 C-12.60764957 2.49038154 -11.21090882 1.99275091 -9.8125 1.5 C-9.03519531 1.2215625 -8.25789062 0.943125 -7.45703125 0.65625 C-4.86777221 -0.0353168 -2.66742762 -0.11370917 0 0 Z " fill="#FDF9F9" transform="translate(216,72)"/>
<path d="M0 0 C1.33105469 1.32592773 1.33105469 1.32592773 2.671875 3.18359375 C3.16840576 3.85962646 3.66493652 4.53565918 4.17651367 5.23217773 C4.69576416 5.95993408 5.21501465 6.68769043 5.75 7.4375 C6.82305348 8.91751222 7.89726576 10.396685 8.97265625 11.875 C9.49102051 12.59042969 10.00938477 13.30585938 10.54345703 14.04296875 C12.32200322 16.43264798 14.24708187 18.67838534 16.1875 20.9375 C19.40409328 25.05851437 20.49430182 28.78017279 20 34 C18.02237247 40.30368776 13.15014877 44.26741818 7.5 47.375 C2.81554177 48.54611456 -0.60881131 48.78984832 -4.8828125 46.36328125 C-8.27296134 43.79305563 -10.77574244 41.09837725 -13.4375 37.8125 C-13.90833008 37.24023682 -14.37916016 36.66797363 -14.86425781 36.07836914 C-15.80695643 34.92866989 -16.74600966 33.77597064 -17.68115234 32.62011719 C-18.86895767 31.16097685 -20.08332318 29.72355469 -21.30078125 28.2890625 C-21.94402344 27.51304687 -22.58726562 26.73703125 -23.25 25.9375 C-23.81203125 25.26589844 -24.3740625 24.59429687 -24.953125 23.90234375 C-26 22 -26 22 -25.8203125 19.8984375 C-24.55918555 16.97982942 -22.63003041 15.69073384 -20 14 C-16.07511261 15.3082958 -14.61229821 17.79572114 -12.25 21 C-11.8068042 21.58289795 -11.3636084 22.1657959 -10.90698242 22.76635742 C-8.88660634 25.42836661 -6.92650298 28.107104 -5.03515625 30.86328125 C-1.68866243 35.83433195 -1.68866243 35.83433195 3.8125 37.75 C7.28221897 37.31646242 7.28221897 37.31646242 9 34 C8.90026944 28.52249054 6.35537904 25.49850135 2.8125 21.625 C1.81244675 20.48556311 0.81374226 19.34494101 -0.18359375 18.203125 C-0.90844971 17.38231445 -0.90844971 17.38231445 -1.64794922 16.54492188 C-3.40865213 14.53305332 -5.10138621 12.47961335 -6.75 10.375 C-7.21921875 9.78460938 -7.6884375 9.19421875 -8.171875 8.5859375 C-8.44515625 8.06257813 -8.7184375 7.53921875 -9 7 C-7.51191431 2.53574293 -4.79253508 0 0 0 Z " fill="#FDF8F8" transform="translate(347,348)"/>
<path d="M0 0 C6.68816488 1.90472295 13.16631666 4.11369857 19.625 6.6875 C20.43839844 7.00783203 21.25179687 7.32816406 22.08984375 7.65820312 C24.06132051 8.43519691 26.03087373 9.21706853 28 10 C27.51421457 13.12290635 27.0013988 15.99580359 26 19 C19.14381674 17.07443364 12.56747868 14.7527517 6 12 C5.67 14.31 5.34 16.62 5 19 C8.63 20.65 12.26 22.3 16 24 C15.34 25.98 14.68 27.96 14 30 C9.86563989 31.18124575 7.88211565 30.69220426 4 29 C2.68 29 1.36 29 0 29 C-0.99 32.465 -0.99 32.465 -2 36 C-1.3709375 36.17015625 -0.741875 36.3403125 -0.09375 36.515625 C5.66354865 38.14570353 10.72884406 40.16919403 16 43 C15.01 45.31 14.02 47.62 13 50 C8.9158873 49.43116017 5.40339371 48.52141737 1.6015625 46.93359375 C0.62832031 46.53076172 -0.34492188 46.12792969 -1.34765625 45.71289062 C-2.34667969 45.29201172 -3.34570312 44.87113281 -4.375 44.4375 C-5.39722656 44.01275391 -6.41945312 43.58800781 -7.47265625 43.15039062 C-9.98417905 42.10587881 -12.49312619 41.05560951 -15 40 C-14.38282894 34.90223679 -12.81839991 30.66049002 -10.83984375 25.9765625 C-10.53051407 25.23038666 -10.22118439 24.48421082 -9.90248108 23.71542358 C-8.92006655 21.34943689 -7.92893819 18.98721761 -6.9375 16.625 C-6.26699789 15.01456437 -5.59706986 13.4038896 -4.92773438 11.79296875 C-3.29178722 7.85918041 -1.64801898 3.92874539 0 0 Z " fill="#FDF8F8" transform="translate(187,372)"/>
<path d="M0 0 C1.75 2.3125 1.75 2.3125 3 5 C1.60970863 9.17087411 -1.27843718 10.18208698 -4.9375 12.1875 C-5.58396484 12.55552734 -6.23042969 12.92355469 -6.89648438 13.30273438 C-11.71553224 16 -11.71553224 16 -14 16 C-13.505 16.94875 -13.01 17.8975 -12.5 18.875 C-11 22 -11 22 -11 24 C-10.32453125 23.55527344 -9.6490625 23.11054687 -8.953125 22.65234375 C-8.06109375 22.08644531 -7.1690625 21.52054688 -6.25 20.9375 C-5.36828125 20.36902344 -4.4865625 19.80054687 -3.578125 19.21484375 C-1 18 -1 18 1.25 18.19921875 C3 19 3 19 4.25 20.875 C5 23 5 23 5 26 C3.54462432 26.83848804 2.08559627 27.67063934 0.625 28.5 C-0.18710938 28.9640625 -0.99921875 29.428125 -1.8359375 29.90625 C-4 31 -4 31 -6 31 C-4.68 33.31 -3.36 35.62 -2 38 C-1.04738281 37.50628906 -0.09476563 37.01257813 0.88671875 36.50390625 C2.15348171 35.85644963 3.42041801 35.20933206 4.6875 34.5625 C5.31333984 34.23701172 5.93917969 33.91152344 6.58398438 33.57617188 C10.03713639 31.82247687 13.15193519 30.52239503 17 30 C18.5625 32.3125 18.5625 32.3125 20 35 C18.8268432 38.51947039 18.2794325 38.6934456 15.140625 40.375 C14.35429687 40.80296875 13.56796875 41.2309375 12.7578125 41.671875 C11.93023437 42.11015625 11.10265625 42.5484375 10.25 43 C8.62986268 43.87435982 7.01006189 44.74934357 5.390625 45.625 C4.62556641 46.03363281 3.86050781 46.44226563 3.07226562 46.86328125 C1.38507808 47.78876961 -0.26026482 48.7902201 -1.890625 49.8125 C-4 51 -4 51 -7 51 C-12.33333333 41.66666667 -17.66666667 32.33333333 -23 23 C-23.38514771 22.38109894 -23.77029541 21.76219788 -24.16711426 21.12454224 C-25.18508706 19.45921754 -26.10031349 17.73209098 -27 16 C-25.72068836 12.16206508 -24.44891675 11.81867717 -20.9765625 9.86328125 C-19.955625 9.28642578 -18.9346875 8.70957031 -17.8828125 8.11523438 C-16.27019531 7.22288086 -16.27019531 7.22288086 -14.625 6.3125 C-13.55765625 5.70599609 -12.4903125 5.09949219 -11.390625 4.47460938 C-3.39773446 0 -3.39773446 0 0 0 Z " fill="#FDF8F9" transform="translate(174,85)"/>
<path d="M0 0 C4.2654185 2.40414497 7.26957532 4.46424696 9.4375 8.9375 C10.477738 14.8371355 10.69363181 20.86331017 7.375 26.0625 C3.49082082 30.44716165 -1.2662726 32.04603879 -7 32.5 C-12.42780149 32.30515584 -15.84634138 29.72344563 -19.5625 25.9375 C-22.64873984 21.69392022 -23.20589311 17.61641117 -23.04296875 12.47265625 C-22.19479836 7.99735069 -19.80634187 5.03288229 -16.5625 1.9375 C-11.03115708 -1.82852071 -6.31989322 -1.88488043 0 0 Z " fill="#C72125" transform="translate(292.5625,189.0625)"/>
<path d="M0 0 C4.59047821 2.63527453 7.99478431 6.17706863 10.375 10.9375 C10.79722151 14.65304927 10.50520872 16.66623183 8.875 20.0625 C3.9648752 25.70914352 -3.49299601 28.1070427 -10.625 29.9375 C-13.6875 30.125 -13.6875 30.125 -15.625 29.9375 C-15.625 30.5975 -15.625 31.2575 -15.625 31.9375 C-14.965 32.164375 -14.305 32.39125 -13.625 32.625 C-9.69765467 34.34321358 -6.21239822 36.60524607 -2.625 38.9375 C-4.5 43.6875 -4.5 43.6875 -5.625 45.9375 C-9.64239044 45.35182842 -12.45851438 44.08456444 -15.92578125 41.99609375 C-16.90224609 41.41279297 -17.87871094 40.82949219 -18.88476562 40.22851562 C-19.89216797 39.61685547 -20.89957031 39.00519531 -21.9375 38.375 C-22.96423828 37.75947266 -23.99097656 37.14394531 -25.04882812 36.50976562 C-27.57820506 34.99213946 -30.10333212 33.46788935 -32.625 31.9375 C-31.50048273 28.9655615 -30.40206209 26.60309313 -28.625 23.9375 C-26.58129883 23.07788086 -26.58129883 23.07788086 -24.08203125 22.40234375 C-23.17259766 22.15033203 -22.26316406 21.89832031 -21.32617188 21.63867188 C-20.37291016 21.38666016 -19.41964844 21.13464844 -18.4375 20.875 C-17.50357422 20.61912109 -16.56964844 20.36324219 -15.60742188 20.09960938 C-13.78585387 19.60095353 -11.96312701 19.10650791 -10.13916016 18.61669922 C-6.95763436 17.75721148 -3.79089981 16.85267712 -0.625 15.9375 C-0.955 13.9575 -1.285 11.9775 -1.625 9.9375 C-3.97033951 9.16793864 -3.97033951 9.16793864 -6.625 8.9375 C-8.4604799 10.27128575 -8.4604799 10.27128575 -9.625 11.9375 C-13.56173644 10.62525452 -15.85219294 9.01839673 -18.625 5.9375 C-12.99700888 -1.02343639 -8.94465869 -2.62171031 0 0 Z " fill="#FDF7F7" transform="translate(337.625,91.0625)"/>
<path d="M0 0 C5.15892846 1.61778244 8.76259854 4.54949739 11.6796875 9.078125 C13.41137154 13.09563197 13.87062136 15.3826422 13.2421875 19.703125 C11.06638989 24.22878403 8.94670231 26.21511751 4.30834961 28.08740234 C0.53160541 29.21288372 -3.27766883 29.28013545 -7.1953125 29.390625 C-8.02224609 29.42478516 -8.84917969 29.45894531 -9.70117188 29.49414062 C-11.71960194 29.57581121 -13.73868134 29.64116224 -15.7578125 29.703125 C-12.7878125 33.003125 -9.8178125 36.303125 -6.7578125 39.703125 C-8.7578125 43.703125 -8.7578125 43.703125 -10.7578125 45.703125 C-14.09805421 45.37488333 -15.76470392 44.06425276 -18.0703125 41.71875 C-18.97136719 40.80996094 -18.97136719 40.80996094 -19.890625 39.8828125 C-20.50679688 39.24601562 -21.12296875 38.60921875 -21.7578125 37.953125 C-22.37398438 37.33179688 -22.99015625 36.71046875 -23.625 36.0703125 C-26.88067609 32.75874498 -29.93541847 29.40046117 -32.7578125 25.703125 C-31.60607895 23.23512453 -30.70997685 21.65528935 -28.7578125 19.703125 C-26.00805664 19.41601562 -26.00805664 19.41601562 -22.54296875 19.359375 C-20.67801758 19.31490234 -20.67801758 19.31490234 -18.77539062 19.26953125 C-16.81762695 19.23666016 -16.81762695 19.23666016 -14.8203125 19.203125 C-12.24853518 19.15981622 -9.6768812 19.10813081 -7.10546875 19.046875 C-5.96086182 19.02818359 -4.81625488 19.00949219 -3.63696289 18.99023438 C-0.56109961 18.9109941 -0.56109961 18.9109941 2.2421875 16.703125 C1.7471875 14.228125 1.7471875 14.228125 1.2421875 11.703125 C-2.43349714 10.78420384 -3.92161825 10.74407644 -7.7578125 11.703125 C-10.2328125 8.238125 -10.2328125 8.238125 -12.7578125 4.703125 C-8.56494006 0.29523346 -6.08234539 -1.10588098 0 0 Z " fill="#FDF9F9" transform="translate(369.7578125,117.296875)"/>
<path d="M0 0 C3.3 0 6.6 0 10 0 C11.9560219 5.18218789 12.77858808 10.29994568 13.5625 15.75 C13.81077792 17.45356848 14.06194057 19.1567198 14.31640625 20.859375 C14.47798218 21.98037598 14.47798218 21.98037598 14.64282227 23.12402344 C14.92736523 25.08142364 14.92736523 25.08142364 16 27 C16.3556604 25.91730835 16.3556604 25.91730835 16.71850586 24.81274414 C17.78840239 21.56163243 18.86288718 18.31205569 19.9375 15.0625 C20.31068359 13.92619141 20.68386719 12.78988281 21.06835938 11.61914062 C21.42607422 10.53955078 21.78378906 9.45996094 22.15234375 8.34765625 C22.48226318 7.34742432 22.81218262 6.34719238 23.15209961 5.31665039 C24 3 24 3 25 2 C26.68608966 1.92794489 28.37500659 1.91613932 30.0625 1.9375 C30.98160156 1.94652344 31.90070313 1.95554687 32.84765625 1.96484375 C33.55792969 1.97644531 34.26820313 1.98804688 35 2 C34.36420859 7.19409257 32.75893991 11.63891592 30.83984375 16.4609375 C30.53051407 17.25150543 30.22118439 18.04207336 29.90248108 18.8565979 C28.9196015 21.36491142 27.92868752 23.86995943 26.9375 26.375 C26.26704393 28.08182151 25.59711633 29.78885071 24.92773438 31.49609375 C23.29126391 35.6664915 21.64758357 39.83398085 20 44 C16.37 44 12.74 44 9 44 C7.37611079 39.43586695 6.23980497 34.85578901 5.2734375 30.1171875 C5.12089508 29.38049835 4.96835266 28.6438092 4.81118774 27.88479614 C4.49177961 26.33714445 4.17421172 24.78911192 3.85839844 23.24072266 C3.37481941 20.87411619 2.88310128 18.50930033 2.390625 16.14453125 C2.08023942 14.63551732 1.77032718 13.12640593 1.4609375 11.6171875 C1.31409515 10.91294647 1.16725281 10.20870544 1.01596069 9.48312378 C0.35550638 6.21746948 0 3.35286385 0 0 Z " fill="#FDF7F7" transform="translate(222,385)"/>
<path d="M0 0 C2.46800047 1.15173355 4.04783565 2.04783565 6 4 C5.88679697 7.28288776 4.71715137 8.30354487 2.4375 10.75 C1.2309375 11.86375 1.2309375 11.86375 0 13 C3.33934833 20.98140947 11.84245708 27.03315247 18.30859375 32.52734375 C19.94783789 33.95458403 21.48225476 35.44512338 23 37 C21.55746343 40.36591866 19.66735273 42.51047079 17 45 C13.33247995 43.4608199 11.01419427 41.24514548 8.234375 38.4296875 C6.90019531 37.08583984 6.90019531 37.08583984 5.5390625 35.71484375 C4.61867187 34.77769531 3.69828125 33.84054688 2.75 32.875 C1.80515144 31.92011363 0.85984367 30.96568141 -0.0859375 30.01171875 C-2.39518338 27.67890913 -4.69963203 25.34155914 -7 23 C-10.32759923 24.55194754 -12.48580485 26.30621949 -15 29 C-17.91517292 27.92598892 -19.77810176 27.22189824 -22 25 C-21.81403122 20.87648924 -19.12088138 18.7773925 -16.30859375 16.015625 C-15.61154076 15.32493927 -15.61154076 15.32493927 -14.90040588 14.62030029 C-13.41968181 13.15632189 -11.92885481 11.70313959 -10.4375 10.25 C-9.42965336 9.25720551 -8.42248367 8.2637233 -7.41601562 7.26953125 C-4.95180539 4.83833527 -2.47842671 2.41671132 0 0 Z " fill="#FDF7F8" transform="translate(131,111)"/>
<path d="M0 0 C3.18046841 2.15793785 5.98009233 4.18130367 6.99609375 8.01953125 C7.71740564 13.48089269 6.63644029 16.28239718 3.48046875 20.5390625 C0.57585046 23.43603706 -2.3350467 24.33642491 -6.37890625 24.45703125 C-9.8273074 24.38885857 -11.75993164 23.89437664 -14.44140625 21.70703125 C-17.58650561 18.40851241 -18.90745474 16.8462585 -19.44140625 12.26953125 C-19.32555904 7.43959391 -17.27576794 4.44313146 -14.00390625 1.01953125 C-10.07987693 -2.09262994 -4.41214677 -2.15876967 0 0 Z " fill="#C72225" transform="translate(213.00390625,279.98046875)"/>
<path d="M0 0 C3.02089981 1.7475743 5.41608883 3.83217766 7 7 C7.53118173 10.79415519 7.85089348 14.46331178 5.953125 17.890625 C4.17889137 20.0405787 2.50728754 21.74635623 0 23 C-4.73177192 23.39431433 -7.09400722 23.45299639 -11.375 21.3125 C-15.02711277 18.09516256 -15.76976651 15.80349565 -16.375 11.0625 C-15.82078813 6.53643643 -13.83621049 3.44273681 -10.25 0.625 C-6.77005671 -0.34165091 -3.536152 -0.68551123 0 0 Z " fill="#C72125" transform="translate(283,262)"/>
<path d="M0 0 C0.639375 -0.00128906 1.27875 -0.00257813 1.9375 -0.00390625 C5.18884131 0.88898104 6.72664263 2.05249621 9 4.5625 C9.73826508 7.57859215 9.69907355 10.47116384 9.625 13.5625 C9.65400391 14.77292969 9.65400391 14.77292969 9.68359375 16.0078125 C9.64942947 20.14852302 9.563675 21.937158 6.71484375 25.09765625 C2.64738967 27.29232572 0.58684579 27.07214953 -4 26.5625 C-7.23613354 24.81996655 -7.82395315 24.09064056 -9 20.5625 C-9.19741449 18.1089199 -9.31215287 15.64820681 -9.375 13.1875 C-9.42398438 11.88039062 -9.47296875 10.57328125 -9.5234375 9.2265625 C-8.7697753 3.95092713 -5.72451259 -0.19620305 0 0 Z " fill="#FCF3F3" transform="translate(104,234.4375)"/>
<path d="M0 0 C3.6578218 2.03993908 5.66946174 3.50419262 8 7 C8.46229036 11.99273591 8.08578614 14.99990685 5 19 C0.98141405 21.6790573 -2.27641721 21.69610694 -7 21 C-9.87029869 19.20606332 -11.49131638 18.01736724 -13 15 C-13.58029015 7.92046023 -13.58029015 7.92046023 -11.1875 4.125 C-7.42215425 0.46723556 -5.21426326 -0.61344274 0 0 Z " fill="#C82225" transform="translate(323,214)"/>
<path d="M0 0 C2.87029869 1.79393668 4.49131638 2.98263276 6 6 C6.57791538 13.0505676 6.57791538 13.0505676 4.25 16.875 C0.69879518 20.22891566 0.69879518 20.22891566 -2 21 C-5.85030645 20.85998886 -8.45637547 20.28363019 -11.875 18.5 C-14.50524867 15.40558979 -14.96047812 13.25198057 -15.2109375 9.2578125 C-14.879824 5.71367165 -13.29740603 3.62560689 -11 1 C-7.54260443 -0.72869779 -3.78024432 -0.48966895 0 0 Z " fill="#C82225" transform="translate(185,210)"/>
<path d="M0 0 C3.6578218 2.03993908 5.66946174 3.50419262 8 7 C8.5291588 10.96869102 8.15826216 12.71621958 6.1875 16.25 C4 19 4 19 1 21 C-3.36007907 21.49359386 -5.50460646 21.27521864 -9.375 19.125 C-12 17 -12 17 -13 15 C-13.34708476 9.70695745 -13.51351894 6.26641586 -10 2 C-6.78144775 -0.33067577 -3.89509474 -0.46741137 0 0 Z " fill="#C72125" transform="translate(213,238)"/>
<path d="M0 0 C3.22254402 2.13740165 6.25333994 4.50667988 8 8 C8.40417552 10.96395382 8.56382171 13.08904926 6.953125 15.69140625 C5.15636794 17.88450678 3.55808759 19.7209562 1 21 C-6.08958838 21.5811138 -6.08958838 21.5811138 -9.9375 19.125 C-13.05423849 15.91381488 -13.39206462 13.59211898 -13.359375 9.10546875 C-12.72418186 5.38406547 -10.66020984 3.59687151 -8 1 C-5.04206277 -0.47896861 -3.29779776 -0.4355582 0 0 Z " fill="#C82225" transform="translate(219,173)"/>
<path d="M0 0 C3.5 1.0625 3.5 1.0625 5.3125 4.1875 C5.73578901 5.4704315 6.13160537 6.76274148 6.5 8.0625 C6.891875 9.196875 7.28375 10.33125 7.6875 11.5 C8.72269735 16.03894222 9.72270298 20.76094146 7.4375 25.0625 C4.2930558 26.68543894 1.95914297 26.55666328 -1.5 26.0625 C-5.71709532 20.39193979 -8.11801205 12.01097468 -7.375 4.9375 C-6.05889784 0.61316432 -4.40135515 0.07859563 0 0 Z " fill="#C8262C" transform="translate(284.5,390.9375)"/>
<path d="M0 0 C2.625 1.5625 2.625 1.5625 4 4 C4.52639181 10.57989761 0.82096968 14.21639603 -3.28515625 19.05859375 C-3.85105469 19.69925781 -4.41695313 20.33992188 -5 21 C-2.03 21 0.94 21 4 21 C4 22.65 4 24.3 4 26 C-1.61 26 -7.22 26 -13 26 C-13 21 -13 21 -10.8125 18.28125 C-8.9375 16.42708333 -7.0625 14.57291667 -5.1875 12.71875 C-2.76462615 10.2066142 -2.76462615 10.2066142 -2.6875 7.15625 C-2.790625 6.4446875 -2.89375 5.733125 -3 5 C-4.32 5 -5.64 5 -7 5 C-7.33 6.32 -7.66 7.64 -8 9 C-9.65 9 -11.3 9 -13 9 C-13.47792208 3.62337662 -13.47792208 3.62337662 -11.5625 1.125 C-7.70155757 -0.5700479 -4.14521959 -0.668094 0 0 Z " fill="#FBF2F2" transform="translate(400,235)"/>
<path d="M0 0 C2.625 1.5625 2.625 1.5625 4 4 C4.52639181 10.57989761 0.82096968 14.21639603 -3.28515625 19.05859375 C-3.85105469 19.69925781 -4.41695312 20.33992188 -5 21 C-2.03 21 0.94 21 4 21 C4 22.65 4 24.3 4 26 C-1.61 26 -7.22 26 -13 26 C-13 21 -13 21 -10.8125 18.28125 C-8.9375 16.42708333 -7.0625 14.57291667 -5.1875 12.71875 C-2.76462615 10.2066142 -2.76462615 10.2066142 -2.6875 7.15625 C-2.790625 6.4446875 -2.89375 5.733125 -3 5 C-4.32 5 -5.64 5 -7 5 C-7.33 6.32 -7.66 7.64 -8 9 C-9.65 9 -11.3 9 -13 9 C-13.47792208 3.62337662 -13.47792208 3.62337662 -11.5625 1.125 C-7.70155757 -0.5700479 -4.14521959 -0.668094 0 0 Z " fill="#FBF2F2" transform="translate(87,235)"/>
<path d="M0 0 C0.67434082 0.67796631 1.34868164 1.35593262 2.04345703 2.05444336 C4.77887378 4.79016003 7.54741021 7.49088867 10.318573 10.19032288 C13.11361908 12.91847871 15.89546094 15.65993625 18.67675781 18.40209961 C20.14861876 19.8486231 21.62490685 21.29065495 23.10546875 22.72827148 C25.24613122 24.80855022 27.37046536 26.90433564 29.4921875 29.00390625 C30.15975067 29.64566299 30.82731384 30.28741974 31.5151062 30.94862366 C32.11968658 31.55282639 32.72426697 32.15702911 33.34716797 32.77954102 C33.88501923 33.30628922 34.42287048 33.83303741 34.97702026 34.37574768 C36 36 36 36 35.853302 38.13877869 C35.57171234 38.75298172 35.29012268 39.36718475 35 40 C34.01 40.33 33.02 40.66 32 41 C30.72962891 39.4840625 30.72962891 39.4840625 29.43359375 37.9375 C23.32872283 30.96050466 16.63539281 24.53077416 10.0625 18 C8.69703255 16.63955682 7.33179614 15.27888169 5.96679688 13.91796875 C2.64719114 10.6092969 -0.67553273 7.30378678 -4 4 C-2.68 2.68 -1.36 1.36 0 0 Z " fill="#EF5C07" transform="translate(286,282)"/>
<path d="M0 0 C16.83 0 33.66 0 51 0 C51 1.65 51 3.3 51 5 C34.17 5 17.34 5 0 5 C0 3.35 0 1.7 0 0 Z " fill="#EE5A06" transform="translate(149,248)"/>
<path d="M0 0 C2.69990662 1.79993774 4.5418865 3.083773 6 6 C6.375 8.8125 6.375 8.8125 6 12 C3.5625 14.8125 3.5625 14.8125 1 17 C0.67 17.33 0.34 17.66 0 18 C-3.75613218 17.78738874 -6.27579885 17.51456398 -9.375 15.3125 C-11.4443746 12.36762077 -12 10.61026337 -12 7 C-8.77513805 1.10628678 -6.74565765 -0.66133899 0 0 Z " fill="#C82425" transform="translate(179,268)"/>
<path d="M0 0 C1.65 0 3.3 0 5 0 C3.36041242 5.23272633 1.61047965 10.15196636 -1 15 C0.98 15 2.96 15 5 15 C5 13.02 5 11.04 5 9 C6.65 9 8.3 9 10 9 C10 10.98 10 12.96 10 15 C10.99 15 11.98 15 13 15 C13 16.32 13 17.64 13 19 C12.01 19 11.02 19 10 19 C10 21.31 10 23.62 10 26 C8.35 26 6.7 26 5 26 C5 23.69 5 21.38 5 19 C1.04 19 -2.92 19 -7 19 C-6.67422369 11.83292123 -3.34556372 6.23072876 0 0 Z " fill="#FCF6F6" transform="translate(415,235)"/>
<path d="M0 0 C3.36046048 1.21548571 4.8814778 2.13662225 6.9375 5.0625 C7.4217732 8.38323048 7.27567538 10.32647123 5.875 13.375 C2.96174548 15.91235071 0.7512751 16.0625 -3.0625 16.0625 C-6 14.5625 -6 14.5625 -8.0625 12.0625 C-8.6875 8.625 -8.6875 8.625 -8.0625 5.0625 C-5.56394946 1.53513453 -4.39937831 0.08978323 0 0 Z " fill="#C82325" transform="translate(225.0625,314.9375)"/>
<path d="M0 0 C2.9375 2.0625 2.9375 2.0625 5 5 C5 8.54361243 4.65850044 10.86591591 2.875 13.9375 C-0.14771101 15.65036957 -2.60585305 15.35727863 -6 15 C-8.4375 14 -8.4375 14 -10 12 C-10.5659239 7.54334931 -10.82483134 5.26897129 -8.375 1.5 C-5.23686002 -0.48198314 -3.65126535 -0.67064058 0 0 Z " fill="#C82225" transform="translate(325,266)"/>
<path d="M0 0 C2 1.125 2 1.125 3 3 C2.93298553 6.75281005 2.76887129 9.08874514 0.3125 12 C-2.89970645 13.38906225 -4.6936636 13.05521374 -8 12 C-9.9375 10.3125 -9.9375 10.3125 -11 8 C-10.87230149 4.87138639 -10.44822217 2.77193818 -8.875 0.0625 C-5.76866344 -1.69775739 -3.34812456 -0.83703114 0 0 Z " fill="#C82325" transform="translate(270,165)"/>
<path d="M0 0 C2.7912125 1.98322993 3.82597224 3.12986121 4.5 6.5 C3.82597224 9.87013879 2.7912125 11.01677007 0 13 C-3.70758991 13.61793165 -5.2935202 13.50197249 -8.375 11.3125 C-10 9 -10 9 -10.5 6.5 C-9.33827182 0.69135908 -5.5534724 -0.92557873 0 0 Z " fill="#C82325" transform="translate(238,199)"/>
<path d="M0 0 C0.99 0.66 1.98 1.32 3 2 C2.44005975 5.74382272 0.98823014 7.28686948 -1.78125 9.79296875 C-2.54050781 10.50646484 -3.29976563 11.21996094 -4.08203125 11.95507812 C-5.68431053 13.43440382 -7.29624305 14.90334694 -8.91796875 16.36132812 C-12.80930391 20.05115952 -15.42223704 22.57502568 -16.03125 28.05078125 C-16.0209375 29.35402344 -16.010625 30.65726563 -16 32 C-16.33 32 -16.66 32 -17 32 C-18.64677902 27.30139197 -19.62473489 22.79533404 -18 18 C-13.10434614 11.08129122 -6.4032562 5.48957629 0 0 Z " fill="#EE5B08" transform="translate(319,177)"/>
<path d="M0 0 C1.9375 1.125 1.9375 1.125 3 3 C3.42454541 6.32560568 3.31414524 8.33680449 1.875 11.375 C0 13 0 13 -2.9375 13.4375 C-6.3541854 12.94940209 -7.77728061 12.65016543 -10 10 C-10.43060657 6.55514741 -10.63335287 4.15493758 -8.9375 1.0625 C-5.88023824 -0.6140629 -3.4093712 -0.36528977 0 0 Z " fill="#C72125" transform="translate(279,319)"/>
<path d="M0 0 C1.65 0.66 3.3 1.32 5 2 C1.02279724 6.88627768 -3.24851894 11.47199481 -7.625 16 C-8.18727295 16.60030029 -8.7495459 17.20060059 -9.32885742 17.8190918 C-10.9765625 19.5 -10.9765625 19.5 -14 22 C-16.18896484 21.65625 -16.18896484 21.65625 -18 21 C-18 18 -18 18 -16.34765625 16.00708008 C-15.21650391 14.89949341 -15.21650391 14.89949341 -14.0625 13.76953125 C-13.25039062 12.96708984 -12.43828125 12.16464844 -11.6015625 11.33789062 C-10.74304688 10.50451172 -9.88453125 9.67113281 -9 8.8125 C-7.71222656 7.5450293 -7.71222656 7.5450293 -6.3984375 6.25195312 C-4.2721635 4.16111702 -2.13921536 2.07758017 0 0 Z " fill="#EF5C06" transform="translate(196,300)"/>
<path d="M0 0 C4.70588235 0.70588235 4.70588235 0.70588235 6 2 C6.12557162 4.30993382 6.17575729 6.62418536 6.1875 8.9375 C6.20167969 10.20464844 6.21585937 11.47179687 6.23046875 12.77734375 C6 16 6 16 4 18 C1.375 17.625 1.375 17.625 -1 17 C-1.02684679 14.35409986 -1.04676357 11.70846904 -1.0625 9.0625 C-1.07087891 8.30775391 -1.07925781 7.55300781 -1.08789062 6.77539062 C-1.09652441 4.85005687 -1.05224333 2.92464419 -1 1 C-0.67 0.67 -0.34 0.34 0 0 Z " fill="#CA2C32" transform="translate(102,239)"/>
<path d="M0 0 C2.64 1.98 5.28 3.96 8 6 C7.25 10.75 7.25 10.75 5 13 C0.60370982 12.76236269 -1.77258856 10.85856441 -5 8 C-3.7191375 4.35446828 -2.83328987 2.83328987 0 0 Z " fill="#C92B31" transform="translate(157,361)"/>
<path d="M0 0 C3.03656917 2.5988655 4.46163739 5.62071728 6.1875 9.1875 C6.71730469 10.27417969 7.24710938 11.36085938 7.79296875 12.48046875 C8.19128906 13.31191406 8.58960938 14.14335938 9 15 C5.7 15.66 2.4 16.32 -1 17 C-1.09063407 11.19941973 -0.83485204 5.73960775 0 0 Z " fill="#CB3238" transform="translate(211,85)"/>
</svg>
