<svg width="78" height="70" viewBox="0 0 78 70" fill="none" xmlns="http://www.w3.org/2000/svg">
<path d="M65.25 66.4713C68.1494 66.4713 70.5 64.3567 70.5 61.7484C70.5 59.1401 68.1494 57.0256 65.25 57.0256C62.3506 57.0256 60 59.1401 60 61.7484C60 64.3567 62.3506 66.4713 65.25 66.4713Z" fill="#F00095" stroke="#F00095" stroke-width="6.46793" stroke-linecap="round" stroke-linejoin="round"/>
<path d="M30.25 66.4713C33.1494 66.4713 35.5 64.3567 35.5 61.7484C35.5 59.1401 33.1494 57.0256 30.25 57.0256C27.3505 57.0256 25 59.1401 25 61.7484C25 64.3567 27.3505 66.4713 30.25 66.4713Z" fill="#F00095" stroke="#F00095" stroke-width="6.46793" stroke-linecap="round" stroke-linejoin="round"/>
<path d="M14.5 9.79712H74L67 44.4313H21.5L14.5 9.79712ZM14.5 9.79712C13.9167 7.69807 11 3.5 4 3.5" stroke="#F00095" stroke-width="6.46793" stroke-linecap="round" stroke-linejoin="round"/>
<path d="M67 44.4313H21.5H15.3077C9.06261 44.4313 5.75 46.891 5.75 50.7285C5.75 54.5659 9.06261 57.0256 15.3077 57.0256H65.25" stroke="#F00095" stroke-width="6.46793" stroke-linecap="round" stroke-linejoin="round"/>
</svg>
